<style>foreignObject div { overflow: visible !important; }</style><svg id="mermaid-1780311975066" width="100%" xmlns="http://www.w3.org/2000/svg" xmlns:xlink="http://www.w3.org/1999/xlink" class="flowchart" style="max-width: 2538.01953125px;" viewBox="0 0 2538.01953125 1890.598388671875" role="graphics-document document" aria-roledescription="flowchart-v2"><style>#mermaid-1780311975066{font-family:"trebuchet ms",verdana,arial,sans-serif;font-size:16px;fill:#333;}@keyframes edge-animation-frame{from{stroke-dashoffset:0;}}@keyframes dash{to{stroke-dashoffset:0;}}#mermaid-1780311975066 .edge-animation-slow{stroke-dasharray:9,5!important;stroke-dashoffset:900;animation:dash 50s linear infinite;stroke-linecap:round;}#mermaid-1780311975066 .edge-animation-fast{stroke-dasharray:9,5!important;stroke-dashoffset:900;animation:dash 20s linear infinite;stroke-linecap:round;}#mermaid-1780311975066 .error-icon{fill:#552222;}#mermaid-1780311975066 .error-text{fill:#552222;stroke:#552222;}#mermaid-1780311975066 .edge-thickness-normal{stroke-width:1px;}#mermaid-1780311975066 .edge-thickness-thick{stroke-width:3.5px;}#mermaid-1780311975066 .edge-pattern-solid{stroke-dasharray:0;}#mermaid-1780311975066 .edge-thickness-invisible{stroke-width:0;fill:none;}#mermaid-1780311975066 .edge-pattern-dashed{stroke-dasharray:3;}#mermaid-1780311975066 .edge-pattern-dotted{stroke-dasharray:2;}#mermaid-1780311975066 .marker{fill:#333333;stroke:#333333;}#mermaid-1780311975066 .marker.cross{stroke:#333333;}#mermaid-1780311975066 svg{font-family:"trebuchet ms",verdana,arial,sans-serif;font-size:16px;}#mermaid-1780311975066 p{margin:0;}#mermaid-1780311975066 .label{font-family:"trebuchet ms",verdana,arial,sans-serif;color:#333;}#mermaid-1780311975066 .cluster-label text{fill:#333;}#mermaid-1780311975066 .cluster-label span{color:#333;}#mermaid-1780311975066 .cluster-label span p{background-color:transparent;}#mermaid-1780311975066 .label text,#mermaid-1780311975066 span{fill:#333;color:#333;}#mermaid-1780311975066 .node rect,#mermaid-1780311975066 .node circle,#mermaid-1780311975066 .node ellipse,#mermaid-1780311975066 .node polygon,#mermaid-1780311975066 .node path{fill:#ECECFF;stroke:#9370DB;stroke-width:1px;}#mermaid-1780311975066 .rough-node .label text,#mermaid-1780311975066 .node .label text,#mermaid-1780311975066 .image-shape .label,#mermaid-1780311975066 .icon-shape .label{text-anchor:middle;}#mermaid-1780311975066 .node .katex path{fill:#000;stroke:#000;stroke-width:1px;}#mermaid-1780311975066 .rough-node .label,#mermaid-1780311975066 .node .label,#mermaid-1780311975066 .image-shape .label,#mermaid-1780311975066 .icon-shape .label{text-align:center;}#mermaid-1780311975066 .node.clickable{cursor:pointer;}#mermaid-1780311975066 .root .anchor path{fill:#333333!important;stroke-width:0;stroke:#333333;}#mermaid-1780311975066 .arrowheadPath{fill:#333333;}#mermaid-1780311975066 .edgePath .path{stroke:#333333;stroke-width:2.0px;}#mermaid-1780311975066 .flowchart-link{stroke:#333333;fill:none;}#mermaid-1780311975066 .edgeLabel{background-color:rgba(232,232,232, 0.8);text-align:center;}#mermaid-1780311975066 .edgeLabel p{background-color:rgba(232,232,232, 0.8);}#mermaid-1780311975066 .edgeLabel rect{opacity:0.5;background-color:rgba(232,232,232, 0.8);fill:rgba(232,232,232, 0.8);}#mermaid-1780311975066 .labelBkg{background-color:rgba(232, 232, 232, 0.5);}#mermaid-1780311975066 .cluster rect{fill:#ffffde;stroke:#aaaa33;stroke-width:1px;}#mermaid-1780311975066 .cluster text{fill:#333;}#mermaid-1780311975066 .cluster span{color:#333;}#mermaid-1780311975066 div.mermaidTooltip{position:absolute;text-align:center;max-width:200px;padding:2px;font-family:"trebuchet ms",verdana,arial,sans-serif;font-size:12px;background:hsl(80, 100%, 96.2745098039%);border:1px solid #aaaa33;border-radius:2px;pointer-events:none;z-index:100;}#mermaid-1780311975066 .flowchartTitleText{text-anchor:middle;font-size:18px;fill:#333;}#mermaid-1780311975066 rect.text{fill:none;stroke-width:0;}#mermaid-1780311975066 .icon-shape,#mermaid-1780311975066 .image-shape{background-color:rgba(232,232,232, 0.8);text-align:center;}#mermaid-1780311975066 .icon-shape p,#mermaid-1780311975066 .image-shape p{background-color:rgba(232,232,232, 0.8);padding:2px;}#mermaid-1780311975066 .icon-shape .label rect,#mermaid-1780311975066 .image-shape .label rect{opacity:0.5;background-color:rgba(232,232,232, 0.8);fill:rgba(232,232,232, 0.8);}#mermaid-1780311975066 .label-icon{display:inline-block;height:1em;overflow:visible;vertical-align:-0.125em;}#mermaid-1780311975066 .node .label-icon path{fill:currentColor;stroke:revert;stroke-width:revert;}#mermaid-1780311975066 :root{--mermaid-font-family:"trebuchet ms",verdana,arial,sans-serif;}</style><g><marker id="mermaid-1780311975066_flowchart-v2-pointEnd" class="marker flowchart-v2" viewBox="0 0 10 10" refX="5" refY="5" markerUnits="userSpaceOnUse" markerWidth="8" markerHeight="8" orient="auto"><path d="M 0 0 L 10 5 L 0 10 z" class="arrowMarkerPath" style="stroke-width: 1; stroke-dasharray: 1, 0;"></path></marker><marker id="mermaid-1780311975066_flowchart-v2-pointStart" class="marker flowchart-v2" viewBox="0 0 10 10" refX="4.5" refY="5" markerUnits="userSpaceOnUse" markerWidth="8" markerHeight="8" orient="auto"><path d="M 0 5 L 10 10 L 10 0 z" class="arrowMarkerPath" style="stroke-width: 1; stroke-dasharray: 1, 0;"></path></marker><marker id="mermaid-1780311975066_flowchart-v2-circleEnd" class="marker flowchart-v2" viewBox="0 0 10 10" refX="11" refY="5" markerUnits="userSpaceOnUse" markerWidth="11" markerHeight="11" orient="auto"><circle cx="5" cy="5" r="5" class="arrowMarkerPath" style="stroke-width: 1; stroke-dasharray: 1, 0;"></circle></marker><marker id="mermaid-1780311975066_flowchart-v2-circleStart" class="marker flowchart-v2" viewBox="0 0 10 10" refX="-1" refY="5" markerUnits="userSpaceOnUse" markerWidth="11" markerHeight="11" orient="auto"><circle cx="5" cy="5" r="5" class="arrowMarkerPath" style="stroke-width: 1; stroke-dasharray: 1, 0;"></circle></marker><marker id="mermaid-1780311975066_flowchart-v2-crossEnd" class="marker cross flowchart-v2" viewBox="0 0 11 11" refX="12" refY="5.2" markerUnits="userSpaceOnUse" markerWidth="11" markerHeight="11" orient="auto"><path d="M 1,1 l 9,9 M 10,1 l -9,9" class="arrowMarkerPath" style="stroke-width: 2; stroke-dasharray: 1, 0;"></path></marker><marker id="mermaid-1780311975066_flowchart-v2-crossStart" class="marker cross flowchart-v2" viewBox="0 0 11 11" refX="-1" refY="5.2" markerUnits="userSpaceOnUse" markerWidth="11" markerHeight="11" orient="auto"><path d="M 1,1 l 9,9 M 10,1 l -9,9" class="arrowMarkerPath" style="stroke-width: 2; stroke-dasharray: 1, 0;"></path></marker><g class="root"><g class="clusters"><g class="cluster " id="PG" data-look="classic"><rect style="" x="1654.88671875" y="777" width="696.90625" height="219.171875"></rect><g class="cluster-label " transform="translate(1804.56640625, 777)"><foreignObject width="397.546875" height="44"><div xmlns="http://www.w3.org/1999/xhtml" style="display: table-cell; white-space: nowrap; line-height: 1.5;"><span class="nodeLabel "><p>POSTGRES 16 &nbsp; shared psycopg AsyncConnectionPool</p></span></div></foreignObject></g></g><g class="cluster " id="PROV" data-look="classic"><rect style="" x="8" y="1730.5983581542969" width="1782.8046875" height="152"></rect><g class="cluster-label " transform="translate(821.90234375, 1730.5983581542969)"><foreignObject width="155" height="44"><div xmlns="http://www.w3.org/1999/xhtml" style="display: table-cell; white-space: nowrap; line-height: 1.5;"><span class="nodeLabel "><p>MODEL PROVIDERS</p></span></div></foreignObject></g></g><g class="cluster " id="ING" data-look="classic"><rect style="" x="1391.22265625" y="1198.171875" width="333.46875" height="176"></rect><g class="cluster-label " transform="translate(1395.22265625, 1198.171875)"><foreignObject width="325.46875" height="44"><div xmlns="http://www.w3.org/1999/xhtml" style="display: table-cell; white-space: nowrap; line-height: 1.5;"><span class="nodeLabel "><p>INGESTION &nbsp; chunk → contextualize → index</p></span></div></foreignObject></g></g><g class="cluster " id="DATA" data-look="classic"><rect style="" x="350.36328125" y="1448.171875" width="1335.03125" height="208.42648315429688"></rect><g class="cluster-label " transform="translate(809.63671875, 1448.171875)"><foreignObject width="416.484375" height="44"><div xmlns="http://www.w3.org/1999/xhtml" style="display: table-cell; white-space: nowrap; line-height: 1.5;"><span class="nodeLabel "><p>DATA PLANE &nbsp; raw async clients (no LangChain wrappers)</p></span></div></foreignObject></g></g><g class="cluster " id="CTRL" data-look="classic"><rect style="" x="26.9375" y="504" width="1036.01953125" height="870.171875"></rect><g class="cluster-label " transform="translate(328.689453125, 504)"><foreignObject width="432.515625" height="44"><div xmlns="http://www.w3.org/1999/xhtml" style="display: table-cell; white-space: nowrap; line-height: 1.5;"><span class="nodeLabel "><p>CONTROL PLANE &nbsp; LangGraph StateGraph (graphs/rag_qa)</p></span></div></foreignObject></g></g></g><g class="edgePaths"><path d="M2213.195,206L2213.195,212.167C2213.195,218.333,2213.195,230.667,2213.195,242.333C2213.195,254,2213.195,265,2213.195,270.5L2213.195,276" id="L_CLIENT_API_0" class=" edge-thickness-normal edge-pattern-solid edge-thickness-normal edge-pattern-solid flowchart-link" style=";" data-edge="true" data-et="edge" data-id="L_CLIENT_API_0" data-points="W3sieCI6MjIxMy4xOTUzMTI1LCJ5IjoyMDZ9LHsieCI6MjIxMy4xOTUzMTI1LCJ5IjoyNDN9LHsieCI6MjIxMy4xOTUzMTI1LCJ5IjoyODB9XQ==" marker-end="url(#mermaid-1780311975066_flowchart-v2-pointEnd)"></path><path d="M2083.195,365.057L1863.577,382.048C1643.96,399.038,1204.724,433.019,985.106,456.176C765.488,479.333,765.488,491.667,765.488,509.333C765.488,527,765.488,550,765.488,561.5L765.488,573" id="L_API_RL_0" class=" edge-thickness-normal edge-pattern-solid edge-thickness-normal edge-pattern-solid flowchart-link" style=";" data-edge="true" data-et="edge" data-id="L_API_RL_0" data-points="W3sieCI6MjA4My4xOTUzMTI1LCJ5IjozNjUuMDU3MjgzNDczNTk2NDR9LHsieCI6NzY1LjQ4ODI4MTI1LCJ5Ijo0Njd9LHsieCI6NzY1LjQ4ODI4MTI1LCJ5Ijo1MDR9LHsieCI6NzY1LjQ4ODI4MTI1LCJ5Ijo1Nzd9XQ==" marker-end="url(#mermaid-1780311975066_flowchart-v2-pointEnd)"></path><path d="M2083.195,377.221L1995.656,392.184C1908.116,407.147,1733.036,437.074,1645.497,458.203C1557.957,479.333,1557.957,491.667,1557.957,514.5C1557.957,537.333,1557.957,570.667,1557.957,608C1557.957,645.333,1557.957,686.667,1557.957,715.5C1557.957,744.333,1557.957,760.667,1557.957,787.098C1557.957,813.529,1557.957,850.057,1557.957,886.586C1557.957,923.115,1557.957,959.643,1557.957,984.074C1557.957,1008.505,1557.957,1020.839,1557.957,1039.672C1557.957,1058.505,1557.957,1083.839,1557.957,1107.172C1557.957,1130.505,1557.957,1151.839,1557.957,1166.672C1557.957,1181.505,1557.957,1189.839,1557.957,1197.505C1557.957,1205.172,1557.957,1212.172,1557.957,1215.672L1557.957,1219.172" id="L_API_SRC_0" class=" edge-thickness-normal edge-pattern-solid edge-thickness-normal edge-pattern-solid flowchart-link" style=";" data-edge="true" data-et="edge" data-id="L_API_SRC_0" data-points="W3sieCI6MjA4My4xOTUzMTI1LCJ5IjozNzcuMjIwOTIzOTI0MzgzNDR9LHsieCI6MTU1Ny45NTcwMzEyNSwieSI6NDY3fSx7IngiOjE1NTcuOTU3MDMxMjUsInkiOjUwNH0seyJ4IjoxNTU3Ljk1NzAzMTI1LCJ5Ijo2MDR9LHsieCI6MTU1Ny45NTcwMzEyNSwieSI6NzI4fSx7IngiOjE1NTcuOTU3MDMxMjUsInkiOjc3N30seyJ4IjoxNTU3Ljk1NzAzMTI1LCJ5Ijo4ODYuNTg1OTM3NX0seyJ4IjoxNTU3Ljk1NzAzMTI1LCJ5Ijo5OTYuMTcxODc1fSx7IngiOjE1NTcuOTU3MDMxMjUsInkiOjEwMzMuMTcxODc1fSx7IngiOjE1NTcuOTU3MDMxMjUsInkiOjExMDkuMTcxODc1fSx7IngiOjE1NTcuOTU3MDMxMjUsInkiOjExNzMuMTcxODc1fSx7IngiOjE1NTcuOTU3MDMxMjUsInkiOjExOTguMTcxODc1fSx7IngiOjE1NTcuOTU3MDMxMjUsInkiOjEyMjMuMTcxODc1fV0=" marker-end="url(#mermaid-1780311975066_flowchart-v2-pointEnd)"></path><path d="M687.91,622.308L613.268,639.923C538.625,657.539,389.34,692.769,314.697,718.551C240.055,744.333,240.055,760.667,240.055,772.333C240.055,784,240.055,791,240.055,794.5L240.055,798" id="L_RL_COND_0" class=" edge-thickness-normal edge-pattern-solid edge-thickness-normal edge-pattern-solid flowchart-link" style=";" data-edge="true" data-et="edge" data-id="L_RL_COND_0" data-points="W3sieCI6Njg3LjkxMDE1NjI1LCJ5Ijo2MjIuMzA4MDkzNzYxODQ4NX0seyJ4IjoyNDAuMDU0Njg3NSwieSI6NzI4fSx7IngiOjI0MC4wNTQ2ODc1LCJ5Ijo3Nzd9LHsieCI6MjQwLjA1NDY4NzUsInkiOjgwMn1d" marker-end="url(#mermaid-1780311975066_flowchart-v2-pointEnd)"></path><path d="M221.137,952.254L219.028,959.573C216.919,966.893,212.702,981.533,210.593,995.019C208.484,1008.505,208.484,1020.839,208.484,1034.505C208.484,1048.172,208.484,1063.172,208.484,1070.672L208.484,1078.172" id="L_COND_RR_0" class=" edge-thickness-normal edge-pattern-solid edge-thickness-normal edge-pattern-solid flowchart-link" style=";" data-edge="true" data-et="edge" data-id="L_COND_RR_0" data-points="W3sieCI6MjIxLjEzNjYxMjgxMzM5OTM4LCJ5Ijo5NTIuMjUzODAwMzEzMzk5M30seyJ4IjoyMDguNDg0Mzc1LCJ5Ijo5OTYuMTcxODc1fSx7IngiOjIwOC40ODQzNzUsInkiOjEwMzMuMTcxODc1fSx7IngiOjIwOC40ODQzNzUsInkiOjEwODIuMTcxODc1fV0=" marker-end="url(#mermaid-1780311975066_flowchart-v2-pointEnd)"></path><path d="M271.054,940.173L276.453,949.506C281.852,958.839,292.651,977.505,298.05,993.005C303.449,1008.505,303.449,1020.839,323.132,1033.156C342.815,1045.473,382.18,1057.774,401.863,1063.925L421.545,1070.075" id="L_COND_WF_0" class=" edge-thickness-normal edge-pattern-solid edge-thickness-normal edge-pattern-solid flowchart-link" style=";" data-edge="true" data-et="edge" data-id="L_COND_WF_0" data-points="W3sieCI6MjcxLjA1NDA1OTI2MDg5MDIsInkiOjk0MC4xNzI1MDMyMzkxMDk4fSx7IngiOjMwMy40NDkyMTg3NSwieSI6OTk2LjE3MTg3NX0seyJ4IjozMDMuNDQ5MjE4NzUsInkiOjEwMzMuMTcxODc1fSx7IngiOjQyNS4zNjMyODEyNSwieSI6MTA3MS4yNjgzMDYyMTAwNDh9XQ==" marker-end="url(#mermaid-1780311975066_flowchart-v2-pointEnd)"></path><path d="M667.957,1085.91L713.79,1077.12C759.624,1068.331,851.29,1050.751,897.124,1035.795C942.957,1020.839,942.957,1008.505,942.957,984.074C942.957,959.643,942.957,923.115,942.957,886.586C942.957,850.057,942.957,813.529,942.957,787.098C942.957,760.667,942.957,744.333,920.366,720.382C897.775,696.43,852.592,664.861,830.001,649.076L807.41,633.291" id="L_WF_RL_0" class=" edge-thickness-normal edge-pattern-solid edge-thickness-normal edge-pattern-solid flowchart-link" style=";" data-edge="true" data-et="edge" data-id="L_WF_RL_0" data-points="W3sieCI6NjY3Ljk1NzAzMTI1LCJ5IjoxMDg1LjkxMDExNTc0NDM5MTV9LHsieCI6OTQyLjk1NzAzMTI1LCJ5IjoxMDMzLjE3MTg3NX0seyJ4Ijo5NDIuOTU3MDMxMjUsInkiOjk5Ni4xNzE4NzV9LHsieCI6OTQyLjk1NzAzMTI1LCJ5Ijo4ODYuNTg1OTM3NX0seyJ4Ijo5NDIuOTU3MDMxMjUsInkiOjc3N30seyJ4Ijo5NDIuOTU3MDMxMjUsInkiOjcyOH0seyJ4Ijo4MDQuMTMwNjcwMzYyOTAzMiwieSI6NjMxfV0=" marker-end="url(#mermaid-1780311975066_flowchart-v2-pointEnd)"></path><path d="M182.954,1136.172L177.123,1142.339C171.292,1148.505,159.631,1160.839,153.8,1171.172C147.969,1181.505,147.969,1189.839,147.969,1201.505C147.969,1213.172,147.969,1228.172,147.969,1235.672L147.969,1243.172" id="L_RR_GEN_0" class=" edge-thickness-normal edge-pattern-solid edge-thickness-normal edge-pattern-solid flowchart-link" style=";" data-edge="true" data-et="edge" data-id="L_RR_GEN_0" data-points="W3sieCI6MTgyLjk1NDM0NTcwMzEyNSwieSI6MTEzNi4xNzE4NzV9LHsieCI6MTQ3Ljk2ODc1LCJ5IjoxMTczLjE3MTg3NX0seyJ4IjoxNDcuOTY4NzUsInkiOjExOTguMTcxODc1fSx7IngiOjE0Ny45Njg3NSwieSI6MTI0Ny4xNzE4NzV9XQ==" marker-end="url(#mermaid-1780311975066_flowchart-v2-pointEnd)"></path><path d="M687.91,629.644L638.319,646.037C588.728,662.429,489.546,695.215,439.954,719.774C390.363,744.333,390.363,760.667,390.363,787.098C390.363,813.529,390.363,850.057,390.363,886.586C390.363,923.115,390.363,959.643,390.363,984.074C390.363,1008.505,390.363,1020.839,390.363,1039.672C390.363,1058.505,390.363,1083.839,390.363,1107.172C390.363,1130.505,390.363,1151.839,390.363,1166.672C390.363,1181.505,390.363,1189.839,390.363,1208.672C390.363,1227.505,390.363,1256.839,390.363,1286.172C390.363,1315.505,390.363,1344.839,390.363,1365.672C390.363,1386.505,390.363,1398.839,390.363,1411.172C390.363,1423.505,390.363,1435.839,511.384,1457.063C632.405,1478.287,874.446,1508.401,995.467,1523.459L1116.488,1538.516" id="L_RL_MILVUS_0" class=" edge-thickness-normal edge-pattern-solid edge-thickness-normal edge-pattern-solid flowchart-link" style=";" data-edge="true" data-et="edge" data-id="L_RL_MILVUS_0" data-points="W3sieCI6Njg3LjkxMDE1NjI1LCJ5Ijo2MjkuNjQzOTUyMDE1OTk0Nn0seyJ4IjozOTAuMzYzMjgxMjUsInkiOjcyOH0seyJ4IjozOTAuMzYzMjgxMjUsInkiOjc3N30seyJ4IjozOTAuMzYzMjgxMjUsInkiOjg4Ni41ODU5Mzc1fSx7IngiOjM5MC4zNjMyODEyNSwieSI6OTk2LjE3MTg3NX0seyJ4IjozOTAuMzYzMjgxMjUsInkiOjEwMzMuMTcxODc1fSx7IngiOjM5MC4zNjMyODEyNSwieSI6MTEwOS4xNzE4NzV9LHsieCI6MzkwLjM2MzI4MTI1LCJ5IjoxMTczLjE3MTg3NX0seyJ4IjozOTAuMzYzMjgxMjUsInkiOjExOTguMTcxODc1fSx7IngiOjM5MC4zNjMyODEyNSwieSI6MTI4Ni4xNzE4NzV9LHsieCI6MzkwLjM2MzI4MTI1LCJ5IjoxMzc0LjE3MTg3NX0seyJ4IjozOTAuMzYzMjgxMjUsInkiOjE0MTEuMTcxODc1fSx7IngiOjM5MC4zNjMyODEyNSwieSI6MTQ0OC4xNzE4NzV9LHsieCI6MTEyMC40NTcwMzEyNSwieSI6MTUzOS4wMDk5ODg3NTQ2ODg3fV0=" marker-end="url(#mermaid-1780311975066_flowchart-v2-pointEnd)"></path><path d="M751.873,631L743.72,647.167C735.567,663.333,719.262,695.667,711.11,720C702.957,744.333,702.957,760.667,702.957,787.098C702.957,813.529,702.957,850.057,702.957,886.586C702.957,923.115,702.957,959.643,702.957,984.074C702.957,1008.505,702.957,1020.839,702.957,1039.672C702.957,1058.505,702.957,1083.839,702.957,1107.172C702.957,1130.505,702.957,1151.839,702.957,1166.672C702.957,1181.505,702.957,1189.839,702.957,1208.672C702.957,1227.505,702.957,1256.839,702.957,1286.172C702.957,1315.505,702.957,1344.839,702.957,1365.672C702.957,1386.505,702.957,1398.839,702.957,1411.172C702.957,1423.505,702.957,1435.839,831.056,1457.619C959.154,1479.399,1215.352,1510.626,1343.45,1526.24L1471.549,1541.853" id="L_RL_NEO4J_0" class=" edge-thickness-normal edge-pattern-solid edge-thickness-normal edge-pattern-solid flowchart-link" style=";" data-edge="true" data-et="edge" data-id="L_RL_NEO4J_0" data-points="W3sieCI6NzUxLjg3MjYwNTg0Njc3NDEsInkiOjYzMX0seyJ4Ijo3MDIuOTU3MDMxMjUsInkiOjcyOH0seyJ4Ijo3MDIuOTU3MDMxMjUsInkiOjc3N30seyJ4Ijo3MDIuOTU3MDMxMjUsInkiOjg4Ni41ODU5Mzc1fSx7IngiOjcwMi45NTcwMzEyNSwieSI6OTk2LjE3MTg3NX0seyJ4Ijo3MDIuOTU3MDMxMjUsInkiOjEwMzMuMTcxODc1fSx7IngiOjcwMi45NTcwMzEyNSwieSI6MTEwOS4xNzE4NzV9LHsieCI6NzAyLjk1NzAzMTI1LCJ5IjoxMTczLjE3MTg3NX0seyJ4Ijo3MDIuOTU3MDMxMjUsInkiOjExOTguMTcxODc1fSx7IngiOjcwMi45NTcwMzEyNSwieSI6MTI4Ni4xNzE4NzV9LHsieCI6NzAyLjk1NzAzMTI1LCJ5IjoxMzc0LjE3MTg3NX0seyJ4Ijo3MDIuOTU3MDMxMjUsInkiOjE0MTEuMTcxODc1fSx7IngiOjcwMi45NTcwMzEyNSwieSI6MTQ0OC4xNzE4NzV9LHsieCI6MTQ3NS41MTk1MzEyNSwieSI6MTU0Mi4zMzcwNzA4NDMyMTE0fV0=" marker-end="url(#mermaid-1780311975066_flowchart-v2-pointEnd)"></path><path d="M546.66,1148.172L546.66,1152.339C546.66,1156.505,546.66,1164.839,546.66,1173.172C546.66,1181.505,546.66,1189.839,692.879,1206.729C839.097,1223.619,1131.535,1249.066,1277.753,1261.789L1423.972,1274.513" id="L_WF_SRC_0" class=" edge-thickness-normal edge-pattern-solid edge-thickness-normal edge-pattern-solid flowchart-link" style=";" data-edge="true" data-et="edge" data-id="L_WF_SRC_0" data-points="W3sieCI6NTQ2LjY2MDE1NjI1LCJ5IjoxMTQ4LjE3MTg3NX0seyJ4Ijo1NDYuNjYwMTU2MjUsInkiOjExNzMuMTcxODc1fSx7IngiOjU0Ni42NjAxNTYyNSwieSI6MTE5OC4xNzE4NzV9LHsieCI6MTQyNy45NTcwMzEyNSwieSI6MTI3NC44NTk2Njc1OTMwNTAzfV0=" marker-end="url(#mermaid-1780311975066_flowchart-v2-pointEnd)"></path><path d="M1513.213,1349.172L1510.253,1353.339C1507.294,1357.505,1501.376,1365.839,1498.416,1376.172C1495.457,1386.505,1495.457,1398.839,1495.457,1411.172C1495.457,1423.505,1495.457,1435.839,1469.412,1452.152C1443.366,1468.466,1391.275,1488.759,1365.23,1498.906L1339.184,1509.053" id="L_SRC_MILVUS_0" class=" edge-thickness-normal edge-pattern-solid edge-thickness-normal edge-pattern-solid flowchart-link" style=";" data-edge="true" data-et="edge" data-id="L_SRC_MILVUS_0" data-points="W3sieCI6MTUxMy4yMTI3MTMwNjgxODE4LCJ5IjoxMzQ5LjE3MTg3NX0seyJ4IjoxNDk1LjQ1NzAzMTI1LCJ5IjoxMzc0LjE3MTg3NX0seyJ4IjoxNDk1LjQ1NzAzMTI1LCJ5IjoxNDExLjE3MTg3NX0seyJ4IjoxNDk1LjQ1NzAzMTI1LCJ5IjoxNDQ4LjE3MTg3NX0seyJ4IjoxMzM1LjQ1NzAzMTI1LCJ5IjoxNTEwLjUwNTAyODg0MDUzNzN9XQ==" marker-end="url(#mermaid-1780311975066_flowchart-v2-pointEnd)"></path><path d="M1565.116,1349.172L1565.59,1353.339C1566.063,1357.505,1567.01,1365.839,1567.484,1376.172C1567.957,1386.505,1567.957,1398.839,1567.957,1411.172C1567.957,1423.505,1567.957,1435.839,1567.391,1447.912C1566.825,1459.986,1565.692,1471.8,1565.126,1477.708L1564.56,1483.615" id="L_SRC_NEO4J_0" class=" edge-thickness-normal edge-pattern-solid edge-thickness-normal edge-pattern-solid flowchart-link" style=";" data-edge="true" data-et="edge" data-id="L_SRC_NEO4J_0" data-points="W3sieCI6MTU2NS4xMTYxMjIxNTkwOTEsInkiOjEzNDkuMTcxODc1fSx7IngiOjE1NjcuOTU3MDMxMjUsInkiOjEzNzQuMTcxODc1fSx7IngiOjE1NjcuOTU3MDMxMjUsInkiOjE0MTEuMTcxODc1fSx7IngiOjE1NjcuOTU3MDMxMjUsInkiOjE0NDguMTcxODc1fSx7IngiOjE1NjQuMTc3ODU2NzMzNDQ5NSwieSI6MTQ4Ny41OTY0MjEwNzUwNzE3fV0=" marker-end="url(#mermaid-1780311975066_flowchart-v2-pointEnd)"></path><path d="M147.969,1325.172L147.969,1333.339C147.969,1341.505,147.969,1357.839,147.969,1372.172C147.969,1386.505,147.969,1398.839,147.969,1411.172C147.969,1423.505,147.969,1435.839,147.969,1459.374C147.969,1482.91,147.969,1517.647,147.969,1552.385C147.969,1587.123,147.969,1621.861,147.969,1645.396C147.969,1668.932,147.969,1681.265,147.969,1693.598C147.969,1705.932,147.969,1718.265,280.19,1735.622C412.411,1752.979,676.853,1775.359,809.074,1786.549L941.295,1797.739" id="L_GEN_LLM_0" class=" edge-thickness-normal edge-pattern-solid edge-thickness-normal edge-pattern-solid flowchart-link" style=";" data-edge="true" data-et="edge" data-id="L_GEN_LLM_0" data-points="W3sieCI6MTQ3Ljk2ODc1LCJ5IjoxMzI1LjE3MTg3NX0seyJ4IjoxNDcuOTY4NzUsInkiOjEzNzQuMTcxODc1fSx7IngiOjE0Ny45Njg3NSwieSI6MTQxMS4xNzE4NzV9LHsieCI6MTQ3Ljk2ODc1LCJ5IjoxNDQ4LjE3MTg3NX0seyJ4IjoxNDcuOTY4NzUsInkiOjE1NTIuMzg1MTE2NTc3MTQ4NH0seyJ4IjoxNDcuOTY4NzUsInkiOjE2NTYuNTk4MzU4MTU0Mjk2OX0seyJ4IjoxNDcuOTY4NzUsInkiOjE2OTMuNTk4MzU4MTU0Mjk2OX0seyJ4IjoxNDcuOTY4NzUsInkiOjE3MzAuNTk4MzU4MTU0Mjk2OX0seyJ4Ijo5NDUuMjgxMjUsInkiOjE3OTguMDc2MzM0NTc3ODAzN31d" marker-end="url(#mermaid-1780311975066_flowchart-v2-pointEnd)"></path><path d="M234.014,1136.172L239.845,1142.339C245.676,1148.505,257.338,1160.839,263.169,1171.172C269,1181.505,269,1189.839,269,1208.672C269,1227.505,269,1256.839,269,1286.172C269,1315.505,269,1344.839,269,1365.672C269,1386.505,269,1398.839,269,1411.172C269,1423.505,269,1435.839,269,1459.374C269,1482.91,269,1517.647,269,1552.385C269,1587.123,269,1621.861,269,1645.396C269,1668.932,269,1681.265,269,1693.598C269,1705.932,269,1718.265,264.26,1728.185C259.519,1738.104,250.038,1745.61,245.298,1749.363L240.557,1753.116" id="L_RR_RER_0" class=" edge-thickness-normal edge-pattern-solid edge-thickness-normal edge-pattern-solid flowchart-link" style=";" data-edge="true" data-et="edge" data-id="L_RR_RER_0" data-points="W3sieCI6MjM0LjAxNDQwNDI5Njg3NSwieSI6MTEzNi4xNzE4NzV9LHsieCI6MjY5LCJ5IjoxMTczLjE3MTg3NX0seyJ4IjoyNjksInkiOjExOTguMTcxODc1fSx7IngiOjI2OSwieSI6MTI4Ni4xNzE4NzV9LHsieCI6MjY5LCJ5IjoxMzc0LjE3MTg3NX0seyJ4IjoyNjksInkiOjE0MTEuMTcxODc1fSx7IngiOjI2OSwieSI6MTQ0OC4xNzE4NzV9LHsieCI6MjY5LCJ5IjoxNTUyLjM4NTExNjU3NzE0ODR9LHsieCI6MjY5LCJ5IjoxNjU2LjU5ODM1ODE1NDI5Njl9LHsieCI6MjY5LCJ5IjoxNjkzLjU5ODM1ODE1NDI5Njl9LHsieCI6MjY5LCJ5IjoxNzMwLjU5ODM1ODE1NDI5Njl9LHsieCI6MjM3LjQyMTA1MjYzMTU3ODk2LCJ5IjoxNzU1LjU5ODM1ODE1NDI5Njl9XQ==" marker-end="url(#mermaid-1780311975066_flowchart-v2-pointEnd)"></path><path d="M1227.957,1631.598L1227.957,1635.765C1227.957,1639.932,1227.957,1648.265,1227.957,1658.598C1227.957,1668.932,1227.957,1681.265,1227.957,1693.598C1227.957,1705.932,1227.957,1718.265,1256.535,1731.545C1285.112,1744.824,1342.268,1759.05,1370.845,1766.163L1399.423,1773.276" id="L_MILVUS_EMB_0" class=" edge-thickness-normal edge-pattern-dotted edge-thickness-normal edge-pattern-solid flowchart-link" style=";" data-edge="true" data-et="edge" data-id="L_MILVUS_EMB_0" data-points="W3sieCI6MTIyNy45NTcwMzEyNSwieSI6MTYzMS41OTgzNTgxNTQyOTY5fSx7IngiOjEyMjcuOTU3MDMxMjUsInkiOjE2NTYuNTk4MzU4MTU0Mjk2OX0seyJ4IjoxMjI3Ljk1NzAzMTI1LCJ5IjoxNjkzLjU5ODM1ODE1NDI5Njl9LHsieCI6MTIyNy45NTcwMzEyNSwieSI6MTczMC41OTgzNTgxNTQyOTY5fSx7IngiOjE0MDMuMzA0Njg3NSwieSI6MTc3NC4yNDE3OTczNjkzMzF9XQ==" marker-end="url(#mermaid-1780311975066_flowchart-v2-pointEnd)"></path><path d="M1557.957,1617.214L1557.957,1623.778C1557.957,1630.342,1557.957,1643.47,1557.957,1656.201C1557.957,1668.932,1557.957,1681.265,1557.957,1693.598C1557.957,1705.932,1557.957,1718.265,1490.069,1734.509C1422.181,1750.753,1286.405,1770.908,1218.517,1780.986L1150.629,1791.063" id="L_NEO4J_LLM_0" class=" edge-thickness-normal edge-pattern-dotted edge-thickness-normal edge-pattern-solid flowchart-link" style=";" data-edge="true" data-et="edge" data-id="L_NEO4J_LLM_0" data-points="W3sieCI6MTU1Ny45NTcwMzEyNSwieSI6MTYxNy4yMTQzNTU0Njg3NX0seyJ4IjoxNTU3Ljk1NzAzMTI1LCJ5IjoxNjU2LjU5ODM1ODE1NDI5Njl9LHsieCI6MTU1Ny45NTcwMzEyNSwieSI6MTY5My41OTgzNTgxNTQyOTY5fSx7IngiOjE1NTcuOTU3MDMxMjUsInkiOjE3MzAuNTk4MzU4MTU0Mjk2OX0seyJ4IjoxMTQ2LjY3MTg3NSwieSI6MTc5MS42NTA4Mjc1MDIwMzV9XQ==" marker-end="url(#mermaid-1780311975066_flowchart-v2-pointEnd)"></path><path d="M2088.09,430L2077.803,436.167C2067.517,442.333,2046.944,454.667,2036.658,467C2026.371,479.333,2026.371,491.667,2026.371,514.5C2026.371,537.333,2026.371,570.667,2026.371,608C2026.371,645.333,2026.371,686.667,2026.371,715.5C2026.371,744.333,2026.371,760.667,2026.371,779.734C2026.371,798.801,2026.371,820.601,2026.371,831.502L2026.371,842.402" id="L_API_RUNS_0" class=" edge-thickness-normal edge-pattern-solid edge-thickness-normal edge-pattern-solid flowchart-link" style=";" data-edge="true" data-et="edge" data-id="L_API_RUNS_0" data-points="W3sieCI6MjA4OC4wODk4MDg4NzI3Njc3LCJ5Ijo0MzB9LHsieCI6MjAyNi4zNzEwOTM3NSwieSI6NDY3fSx7IngiOjIwMjYuMzcxMDkzNzUsInkiOjUwNH0seyJ4IjoyMDI2LjM3MTA5Mzc1LCJ5Ijo2MDR9LHsieCI6MjAyNi4zNzEwOTM3NSwieSI6NzI4fSx7IngiOjIwMjYuMzcxMDkzNzUsInkiOjc3N30seyJ4IjoyMDI2LjM3MTA5Mzc1LCJ5Ijo4NDYuNDAyMDgwNTM1ODg4N31d" marker-end="url(#mermaid-1780311975066_flowchart-v2-pointEnd)"></path><path d="M2227.81,430L2229.011,436.167C2230.213,442.333,2232.616,454.667,2233.818,467C2235.02,479.333,2235.02,491.667,2235.02,514.5C2235.02,537.333,2235.02,570.667,2235.02,608C2235.02,645.333,2235.02,686.667,2235.02,715.5C2235.02,744.333,2235.02,760.667,2235.02,779.639C2235.02,798.61,2235.02,820.221,2235.02,831.026L2235.02,841.831" id="L_API_CTX_0" class=" edge-thickness-normal edge-pattern-solid edge-thickness-normal edge-pattern-solid flowchart-link" style=";" data-edge="true" data-et="edge" data-id="L_API_CTX_0" data-points="W3sieCI6MjIyNy44MDk3NDQ2OTg2NjEsInkiOjQzMH0seyJ4IjoyMjM1LjAxOTUzMTI1LCJ5Ijo0Njd9LHsieCI6MjIzNS4wMTk1MzEyNSwieSI6NTA0fSx7IngiOjIyMzUuMDE5NTMxMjUsInkiOjYwNH0seyJ4IjoyMjM1LjAxOTUzMTI1LCJ5Ijo3Mjh9LHsieCI6MjIzNS4wMTk1MzEyNSwieSI6Nzc3fSx7IngiOjIyMzUuMDE5NTMxMjUsInkiOjg0NS44MzExMjcxNjY3NDh9XQ==" marker-end="url(#mermaid-1780311975066_flowchart-v2-pointEnd)"></path><path d="M2338.301,430L2348.587,436.167C2358.874,442.333,2379.447,454.667,2389.733,467C2400.02,479.333,2400.02,491.667,2400.02,501.333C2400.02,511,2400.02,518,2400.02,521.5L2400.02,525" id="L_API_DEPLOY_0" class=" edge-thickness-normal edge-pattern-dotted edge-thickness-normal edge-pattern-solid flowchart-link" style=";" data-edge="true" data-et="edge" data-id="L_API_DEPLOY_0" data-points="W3sieCI6MjMzOC4zMDA4MTYxMjcyMzIzLCJ5Ijo0MzB9LHsieCI6MjQwMC4wMTk1MzEyNSwieSI6NDY3fSx7IngiOjI0MDAuMDE5NTMxMjUsInkiOjUwNH0seyJ4IjoyNDAwLjAxOTUzMTI1LCJ5Ijo1Mjl9XQ==" marker-end="url(#mermaid-1780311975066_flowchart-v2-pointEnd)"></path><path d="M1062.957,847.701L1685.89,874.594" id="L_CTRL_CKPT_0" class=" edge-thickness-normal edge-pattern-solid edge-thickness-normal edge-pattern-solid flowchart-link" style=";" data-edge="true" data-et="edge" data-id="L_CTRL_CKPT_0" data-points="W3sieCI6Nzc4LjAwMTYzODEwNDgzODcsInkiOjYzMX0seyJ4Ijo4MjIuOTU3MDMxMjUsInkiOjcyOH0seyJ4Ijo4MjIuOTU3MDMxMjUsInkiOjc3N30seyJ4IjoxNjg5Ljg4NjcxODc1LCJ5Ijo4NzQuNzY2NzQwNTc3OTE3Mn1d" marker-end="url(#mermaid-1780311975066_flowchart-v2-pointEnd)"></path><path d="M1227.957,1337.172L1227.957,1343.339C1227.957,1349.505,1227.957,1361.839,1227.957,1374.172C1227.957,1386.505,1227.957,1398.839,1227.957,1410.505C1227.957,1422.172,1227.957,1433.172,1227.957,1438.672L1227.957,1444.172" id="L_EVAL_DATA_0" class=" edge-thickness-normal edge-pattern-dotted edge-thickness-normal edge-pattern-solid flowchart-link" style=";" data-edge="true" data-et="edge" data-id="L_EVAL_DATA_0" data-points="W3sieCI6MTIyNy45NTcwMzEyNSwieSI6MTMzNy4xNzE4NzV9LHsieCI6MTIyNy45NTcwMzEyNSwieSI6MTM3NC4xNzE4NzV9LHsieCI6MTIyNy45NTcwMzEyNSwieSI6MTQxMS4xNzE4NzV9LHsieCI6MTIyNy45NTcwMzEyNSwieSI6MTQ0OC4xNzE4NzV9LHsieCI6MTIyNy45NTcwMzEyNSwieSI6MTQ3My4xNzE4NzV9XQ==" marker-end="url(#mermaid-1780311975066_flowchart-v2-pointEnd)"></path></g><g class="edgeLabels"><g class="edgeLabel" transform="translate(2213.1953125, 243)"><g class="label" data-id="L_CLIENT_API_0" transform="translate(-90.9375, -12)"><foreignObject width="181.875" height="44"><div xmlns="http://www.w3.org/1999/xhtml" class="labelBkg" style="display: table-cell; white-space: nowrap; line-height: 1.5; max-width: 200px; text-align: center;"><span class="edgeLabel "><p>fetch + SSE token stream</p></span></div></foreignObject></g></g><g class="edgeLabel" transform="translate(765.48828125, 467)"><g class="label" data-id="L_API_RL_0" transform="translate(-62.6875, -12)"><foreignObject width="125.375" height="44"><div xmlns="http://www.w3.org/1999/xhtml" class="labelBkg" style="display: table-cell; white-space: nowrap; line-height: 1.5; max-width: 200px; text-align: center;"><span class="edgeLabel "><p>/ask · /ask/stream</p></span></div></foreignObject></g></g><g class="edgeLabel" transform="translate(1557.95703125, 886.5859375)"><g class="label" data-id="L_API_SRC_0" transform="translate(-76.9296875, -12)"><foreignObject width="153.859375" height="44"><div xmlns="http://www.w3.org/1999/xhtml" class="labelBkg" style="display: table-cell; white-space: nowrap; line-height: 1.5; max-width: 200px; text-align: center;"><span class="edgeLabel "><p>/ingest · /documents/*</p></span></div></foreignObject></g></g><g class="edgeLabel"><g class="label" data-id="L_RL_COND_0" transform="translate(0, 0)"><foreignObject width="0" height="20"><div xmlns="http://www.w3.org/1999/xhtml" class="labelBkg" style="display: table-cell; white-space: nowrap; line-height: 1.5; max-width: 200px; text-align: center;"><span class="edgeLabel "></span></div></foreignObject></g></g><g class="edgeLabel" transform="translate(208.484375, 1033.171875)"><g class="label" data-id="L_COND_RR_0" transform="translate(-8.8984375, -12)"><foreignObject width="17.796875" height="44"><div xmlns="http://www.w3.org/1999/xhtml" class="labelBkg" style="display: table-cell; white-space: nowrap; line-height: 1.5; max-width: 200px; text-align: center;"><span class="edgeLabel "><p>no</p></span></div></foreignObject></g></g><g class="edgeLabel" transform="translate(303.44921875, 1033.171875)"><g class="label" data-id="L_COND_WF_0" transform="translate(-34.2421875, -12)"><foreignObject width="68.484375" height="44"><div xmlns="http://www.w3.org/1999/xhtml" class="labelBkg" style="display: table-cell; white-space: nowrap; line-height: 1.5; max-width: 200px; text-align: center;"><span class="edgeLabel "><p>yes, once</p></span></div></foreignObject></g></g><g class="edgeLabel" transform="translate(942.95703125, 886.5859375)"><g class="label" data-id="L_WF_RL_0" transform="translate(-100, -24)"><foreignObject width="200" height="68"><div xmlns="http://www.w3.org/1999/xhtml" class="labelBkg" style="display: table; white-space: break-spaces; line-height: 1.5; max-width: 200px; text-align: center; width: 200px;"><span class="edgeLabel "><p>approved URLs · /ask/resume</p></span></div></foreignObject></g></g><g class="edgeLabel"><g class="label" data-id="L_RR_GEN_0" transform="translate(0, 0)"><foreignObject width="0" height="20"><div xmlns="http://www.w3.org/1999/xhtml" class="labelBkg" style="display: table-cell; white-space: nowrap; line-height: 1.5; max-width: 200px; text-align: center;"><span class="edgeLabel "></span></div></foreignObject></g></g><g class="edgeLabel"><g class="label" data-id="L_RL_MILVUS_0" transform="translate(0, 0)"><foreignObject width="0" height="20"><div xmlns="http://www.w3.org/1999/xhtml" class="labelBkg" style="display: table-cell; white-space: nowrap; line-height: 1.5; max-width: 200px; text-align: center;"><span class="edgeLabel "></span></div></foreignObject></g></g><g class="edgeLabel"><g class="label" data-id="L_RL_NEO4J_0" transform="translate(0, 0)"><foreignObject width="0" height="20"><div xmlns="http://www.w3.org/1999/xhtml" class="labelBkg" style="display: table-cell; white-space: nowrap; line-height: 1.5; max-width: 200px; text-align: center;"><span class="edgeLabel "></span></div></foreignObject></g></g><g class="edgeLabel"><g class="label" data-id="L_WF_SRC_0" transform="translate(0, 0)"><foreignObject width="0" height="20"><div xmlns="http://www.w3.org/1999/xhtml" class="labelBkg" style="display: table-cell; white-space: nowrap; line-height: 1.5; max-width: 200px; text-align: center;"><span class="edgeLabel "></span></div></foreignObject></g></g><g class="edgeLabel"><g class="label" data-id="L_SRC_MILVUS_0" transform="translate(0, 0)"><foreignObject width="0" height="20"><div xmlns="http://www.w3.org/1999/xhtml" class="labelBkg" style="display: table-cell; white-space: nowrap; line-height: 1.5; max-width: 200px; text-align: center;"><span class="edgeLabel "></span></div></foreignObject></g></g><g class="edgeLabel"><g class="label" data-id="L_SRC_NEO4J_0" transform="translate(0, 0)"><foreignObject width="0" height="20"><div xmlns="http://www.w3.org/1999/xhtml" class="labelBkg" style="display: table-cell; white-space: nowrap; line-height: 1.5; max-width: 200px; text-align: center;"><span class="edgeLabel "></span></div></foreignObject></g></g><g class="edgeLabel"><g class="label" data-id="L_GEN_LLM_0" transform="translate(0, 0)"><foreignObject width="0" height="20"><div xmlns="http://www.w3.org/1999/xhtml" class="labelBkg" style="display: table-cell; white-space: nowrap; line-height: 1.5; max-width: 200px; text-align: center;"><span class="edgeLabel "></span></div></foreignObject></g></g><g class="edgeLabel"><g class="label" data-id="L_RR_RER_0" transform="translate(0, 0)"><foreignObject width="0" height="20"><div xmlns="http://www.w3.org/1999/xhtml" class="labelBkg" style="display: table-cell; white-space: nowrap; line-height: 1.5; max-width: 200px; text-align: center;"><span class="edgeLabel "></span></div></foreignObject></g></g><g class="edgeLabel" transform="translate(1227.95703125, 1693.5983581542969)"><g class="label" data-id="L_MILVUS_EMB_0" transform="translate(-24.4609375, -12)"><foreignObject width="48.921875" height="44"><div xmlns="http://www.w3.org/1999/xhtml" class="labelBkg" style="display: table-cell; white-space: nowrap; line-height: 1.5; max-width: 200px; text-align: center;"><span class="edgeLabel "><p>embed</p></span></div></foreignObject></g></g><g class="edgeLabel" transform="translate(1557.95703125, 1693.5983581542969)"><g class="label" data-id="L_NEO4J_LLM_0" transform="translate(-56.03125, -12)"><foreignObject width="112.0625" height="44"><div xmlns="http://www.w3.org/1999/xhtml" class="labelBkg" style="display: table-cell; white-space: nowrap; line-height: 1.5; max-width: 200px; text-align: center;"><span class="edgeLabel "><p>entity extraction</p></span></div></foreignObject></g></g><g class="edgeLabel"><g class="label" data-id="L_API_RUNS_0" transform="translate(0, 0)"><foreignObject width="0" height="20"><div xmlns="http://www.w3.org/1999/xhtml" class="labelBkg" style="display: table-cell; white-space: nowrap; line-height: 1.5; max-width: 200px; text-align: center;"><span class="edgeLabel "></span></div></foreignObject></g></g><g class="edgeLabel"><g class="label" data-id="L_API_CTX_0" transform="translate(0, 0)"><foreignObject width="0" height="20"><div xmlns="http://www.w3.org/1999/xhtml" class="labelBkg" style="display: table-cell; white-space: nowrap; line-height: 1.5; max-width: 200px; text-align: center;"><span class="edgeLabel "></span></div></foreignObject></g></g><g class="edgeLabel" transform="translate(2400.01953125, 467)"><g class="label" data-id="L_API_DEPLOY_0" transform="translate(-43.1484375, -12)"><foreignObject width="86.296875" height="44"><div xmlns="http://www.w3.org/1999/xhtml" class="labelBkg" style="display: table-cell; white-space: nowrap; line-height: 1.5; max-width: 200px; text-align: center;"><span class="edgeLabel "><p>deployed as</p></span></div></foreignObject></g></g><g class="edgeLabel" transform="translate(1376.42188, 861.23391)"><g class="label" data-id="L_CTRL_CKPT_0" transform="translate(-100, -24)"><foreignObject width="200" height="68"><div xmlns="http://www.w3.org/1999/xhtml" class="labelBkg" style="display: table; white-space: break-spaces; line-height: 1.5; max-width: 200px; text-align: center; width: 200px;"><span class="edgeLabel "><p>AsyncPostgresSaver (pooled)</p></span></div></foreignObject></g></g><g class="edgeLabel" transform="translate(1227.95703, 1392.67188)"><g class="label" data-id="L_EVAL_DATA_0" transform="translate(-52.03125, -12)"><foreignObject width="104.0625" height="44"><div xmlns="http://www.w3.org/1999/xhtml" class="labelBkg" style="display: table-cell; white-space: nowrap; line-height: 1.5; max-width: 200px; text-align: center;"><span class="edgeLabel "><p>A/B each layer</p></span></div></foreignObject></g></g></g><g class="nodes"><g class="node default  " id="flowchart-CLIENT-0" transform="translate(2213.1953125, 107)"><rect class="basic label-container" style="" x="-130" y="-99" width="260" height="198"></rect><g class="label" style="" transform="translate(-100, -84)"><rect></rect><foreignObject width="200" height="188"><div xmlns="http://www.w3.org/1999/xhtml" style="display: table; white-space: break-spaces; line-height: 1.5; max-width: 200px; text-align: center; width: 200px;"><span class="nodeLabel "><p>WEB UI &nbsp; React 19 / shadcn-ui / Tailwind v4 / TanStack / i18next EN-RU / light-dark<br>Ask · Library · Ingest · Threads · Graph · Evals · History · Settings</p></span></div></foreignObject></g></g><g class="node default  " id="flowchart-API-2" transform="translate(2213.1953125, 355)"><rect class="basic label-container" style="" x="-130" y="-75" width="260" height="150"></rect><g class="label" style="" transform="translate(-100, -60)"><rect></rect><foreignObject width="200" height="140"><div xmlns="http://www.w3.org/1999/xhtml" style="display: table; white-space: break-spaces; line-height: 1.5; max-width: 200px; text-align: center; width: 200px;"><span class="nodeLabel "><p>FastAPI &nbsp; api/main.py :8000<br>routers: ask · ingest · library · threads · runs · graph · evals · settings · health · admin</p></span></div></foreignObject></g></g><g class="node default  " id="flowchart-RL-5" transform="translate(765.48828125, 604)"><rect class="basic label-container" style="" x="-77.578125" y="-27" width="155.15625" height="54"></rect><g class="label" style="" transform="translate(-47.578125, -12)"><rect></rect><foreignObject width="95.15625" height="44"><div xmlns="http://www.w3.org/1999/xhtml" style="display: table-cell; white-space: nowrap; line-height: 1.5; max-width: 200px; text-align: center;"><span class="nodeLabel "><p>retrieve_local</p></span></div></foreignObject></g></g><g class="node default  " id="flowchart-SRC-7" transform="translate(1557.95703125, 1286.171875)"><rect class="basic label-container" style="" x="-130" y="-63" width="260" height="126"></rect><g class="label" style="" transform="translate(-100, -48)"><rect></rect><foreignObject width="200" height="116"><div xmlns="http://www.w3.org/1999/xhtml" style="display: table; white-space: break-spaces; line-height: 1.5; max-width: 200px; text-align: center; width: 200px;"><span class="nodeLabel "><p>Docling (PDF/DOCX) · Crawl4AI (web)<br>SearXNG (search) · pasted text</p></span></div></foreignObject></g></g><g class="node default  " id="flowchart-COND-9" transform="translate(240.0546875, 886.5859375)"><polygon points="84.5859375,0 169.171875,-84.5859375 84.5859375,-169.171875 0,-84.5859375" class="label-container" transform="translate(-84.0859375, 84.5859375)"></polygon><g class="label" style="" transform="translate(-57.5859375, -12)"><rect></rect><foreignObject width="115.171875" height="44"><div xmlns="http://www.w3.org/1999/xhtml" style="display: table-cell; white-space: nowrap; line-height: 1.5; max-width: 200px; text-align: center;"><span class="nodeLabel "><p>local hits &lt; min?</p></span></div></foreignObject></g></g><g class="node default  " id="flowchart-RR-11" transform="translate(208.484375, 1109.171875)"><rect class="basic label-container" style="" x="-52.6796875" y="-27" width="105.359375" height="54"></rect><g class="label" style="" transform="translate(-22.6796875, -12)"><rect></rect><foreignObject width="45.359375" height="44"><div xmlns="http://www.w3.org/1999/xhtml" style="display: table-cell; white-space: nowrap; line-height: 1.5; max-width: 200px; text-align: center;"><span class="nodeLabel "><p>rerank</p></span></div></foreignObject></g></g><g class="node default  " id="flowchart-WF-13" transform="translate(546.66015625, 1109.171875)"><rect class="basic label-container" style="" x="-121.296875" y="-39" width="242.59375" height="78"></rect><g class="label" style="" transform="translate(-91.296875, -24)"><rect></rect><foreignObject width="182.59375" height="68"><div xmlns="http://www.w3.org/1999/xhtml" style="display: table-cell; white-space: nowrap; line-height: 1.5; max-width: 200px; text-align: center;"><span class="nodeLabel "><p>web_fallback<br>interrupt() · HITL approval</p></span></div></foreignObject></g></g><g class="node default  " id="flowchart-GEN-17" transform="translate(147.96875, 1286.171875)"><rect class="basic label-container" style="" x="-86.03125" y="-39" width="172.0625" height="78"></rect><g class="label" style="" transform="translate(-56.03125, -24)"><rect></rect><foreignObject width="112.0625" height="68"><div xmlns="http://www.w3.org/1999/xhtml" style="display: table-cell; white-space: nowrap; line-height: 1.5; max-width: 200px; text-align: center;"><span class="nodeLabel "><p>generate<br>cited answer [n]</p></span></div></foreignObject></g></g><g class="node default  " id="flowchart-MILVUS-18" transform="translate(1227.95703125, 1552.3851165771484)"><path d="M0,15.808823529411764 a107.5,15.808823529411764 0,0,0 215,0 a107.5,15.808823529411764 0,0,0 -215,0 l0,126.80882352941177 a107.5,15.808823529411764 0,0,0 215,0 l0,-126.80882352941177" class="basic label-container" style="" label-offset-y="15.808823529411764" transform="translate(-107.5, -79.21323529411765)"></path><g class="label" style="" transform="translate(-100, -38)"><rect></rect><foreignObject width="200" height="116"><div xmlns="http://www.w3.org/1999/xhtml" style="display: table; white-space: break-spaces; line-height: 1.5; max-width: 200px; text-align: center; width: 200px;"><span class="nodeLabel "><p>Milvus 2.6<br>dense HNSW + native BM25<br>hybrid_search + RRF</p></span></div></foreignObject></g></g><g class="node default  " id="flowchart-NEO4J-19" transform="translate(1557.95703125, 1552.3851165771484)"><path d="M0,14.219491159982752 a82.4375,14.219491159982752 0,0,0 164.875,0 a82.4375,14.219491159982752 0,0,0 -164.875,0 l0,101.21949115998275 a82.4375,14.219491159982752 0,0,0 164.875,0 l0,-101.21949115998275" class="basic label-container" style="" label-offset-y="14.219491159982752" transform="translate(-82.4375, -64.82923673997414)"></path><g class="label" style="" transform="translate(-74.9375, -26)"><rect></rect><foreignObject width="149.875" height="92"><div xmlns="http://www.w3.org/1999/xhtml" style="display: table-cell; white-space: nowrap; line-height: 1.5; max-width: 200px; text-align: center;"><span class="nodeLabel "><p>Neo4j 5<br>Chunk + Entity graph<br>vector-seed → 1-hop</p></span></div></foreignObject></g></g><g class="node default  " id="flowchart-LLM-29" transform="translate(1045.9765625, 1806.5983581542969)"><rect class="basic label-container" style="" x="-100.6953125" y="-39" width="201.390625" height="78"></rect><g class="label" style="" transform="translate(-70.6953125, -24)"><rect></rect><foreignObject width="141.390625" height="68"><div xmlns="http://www.w3.org/1999/xhtml" style="display: table-cell; white-space: nowrap; line-height: 1.5; max-width: 200px; text-align: center;"><span class="nodeLabel "><p>LLM · Ollama Cloud<br>minimax-m3</p></span></div></foreignObject></g></g><g class="node default  " id="flowchart-RER-30" transform="translate(173, 1806.5983581542969)"><rect class="basic label-container" style="" x="-130" y="-51" width="260" height="102"></rect><g class="label" style="" transform="translate(-100, -36)"><rect></rect><foreignObject width="200" height="92"><div xmlns="http://www.w3.org/1999/xhtml" style="display: table; white-space: break-spaces; line-height: 1.5; max-width: 200px; text-align: center; width: 200px;"><span class="nodeLabel "><p>Reranker · cross-encoder<br>gte-reranker-modernbert-base</p></span></div></foreignObject></g></g><g class="node default  " id="flowchart-EMB-31" transform="translate(1533.3046875, 1806.5983581542969)"><rect class="basic label-container" style="" x="-130" y="-51" width="260" height="102"></rect><g class="label" style="" transform="translate(-100, -36)"><rect></rect><foreignObject width="200" height="92"><div xmlns="http://www.w3.org/1999/xhtml" style="display: table; white-space: break-spaces; line-height: 1.5; max-width: 200px; text-align: center; width: 200px;"><span class="nodeLabel "><p>Embeddings · OpenAI<br>text-embedding-3-large (3072-d)</p></span></div></foreignObject></g></g><g class="node default  " id="flowchart-CKPT-40" transform="translate(1794.69140625, 886.5859375)"><path d="M0,15.660751809479336 a104.8046875,15.660751809479336 0,0,0 209.609375,0 a104.8046875,15.660751809479336 0,0,0 -209.609375,0 l0,78.66075180947934 a104.8046875,15.660751809479336 0,0,0 209.609375,0 l0,-78.66075180947934" class="basic label-container" style="" label-offset-y="15.660751809479336" transform="translate(-104.8046875, -54.991127714219004)"></path><g class="label" style="" transform="translate(-97.3046875, -14)"><rect></rect><foreignObject width="194.609375" height="68"><div xmlns="http://www.w3.org/1999/xhtml" style="display: table-cell; white-space: nowrap; line-height: 1.5; max-width: 200px; text-align: center;"><span class="nodeLabel "><p>LangGraph checkpoints<br>thread state + HITL resume</p></span></div></foreignObject></g></g><g class="node default  " id="flowchart-RUNS-41" transform="translate(2026.37109375, 886.5859375)"><path d="M0,13.789237668161434 a76.875,13.789237668161434 0,0,0 153.75,0 a76.875,13.789237668161434 0,0,0 -153.75,0 l0,52.789237668161434 a76.875,13.789237668161434 0,0,0 153.75,0 l0,-52.789237668161434" class="basic label-container" style="" label-offset-y="13.789237668161434" transform="translate(-76.875, -40.18385650224215)"></path><g class="label" style="" transform="translate(-69.375, -2)"><rect></rect><foreignObject width="138.75" height="44"><div xmlns="http://www.w3.org/1999/xhtml" style="display: table-cell; white-space: nowrap; line-height: 1.5; max-width: 200px; text-align: center;"><span class="nodeLabel "><p>runs · /ask audit log</p></span></div></foreignObject></g></g><g class="node default  " id="flowchart-CTX-42" transform="translate(2235.01953125, 886.5859375)"><path d="M0,14.169870579953429 a81.7734375,14.169870579953429 0,0,0 163.546875,0 a81.7734375,14.169870579953429 0,0,0 -163.546875,0 l0,53.169870579953425 a81.7734375,14.169870579953429 0,0,0 163.546875,0 l0,-53.169870579953425" class="basic label-container" style="" label-offset-y="14.169870579953429" transform="translate(-81.7734375, -40.75480586993014)"></path><g class="label" style="" transform="translate(-74.2734375, -2)"><rect></rect><foreignObject width="148.546875" height="44"><div xmlns="http://www.w3.org/1999/xhtml" style="display: table-cell; white-space: nowrap; line-height: 1.5; max-width: 200px; text-align: center;"><span class="nodeLabel "><p>thread_context · pins</p></span></div></foreignObject></g></g><g class="node default  " id="flowchart-EVAL-48" transform="translate(1227.95703125, 1286.171875)"><rect class="basic label-container" style="" x="-130" y="-51" width="260" height="102"></rect><g class="label" style="" transform="translate(-100, -36)"><rect></rect><foreignObject width="200" height="92"><div xmlns="http://www.w3.org/1999/xhtml" style="display: table; white-space: break-spaces; line-height: 1.5; max-width: 200px; text-align: center; width: 200px;"><span class="nodeLabel "><p>EVAL HARNESS · RAGAS + precision@k / nDCG · eval/evaluate.py</p></span></div></foreignObject></g></g><g class="node default  " id="flowchart-DEPLOY-50" transform="translate(2400.01953125, 604)"><rect class="basic label-container" style="" x="-130" y="-75" width="260" height="150"></rect><g class="label" style="" transform="translate(-100, -60)"><rect></rect><foreignObject width="200" height="140"><div xmlns="http://www.w3.org/1999/xhtml" style="display: table; white-space: break-spaces; line-height: 1.5; max-width: 200px; text-align: center; width: 200px;"><span class="nodeLabel "><p>DEPLOY · Mac Mini / Tailscale · launchd: api:8000 · langgraph:2024 · vite:5173 · auto-deploy on push to main</p></span></div></foreignObject></g></g></g></g></g></svg>