<style>foreignObject div { overflow: visible !important; }</style><svg id="mermaid-1780310633138" width="100%" xmlns="http://www.w3.org/2000/svg" xmlns:xlink="http://www.w3.org/1999/xlink" class="flowchart" style="max-width: 2536.03515625px;" viewBox="0 0 2536.03515625 1890.598388671875" role="graphics-document document" aria-roledescription="flowchart-v2"><style>#mermaid-1780310633138{font-family:"trebuchet ms",verdana,arial,sans-serif;font-size:16px;fill:#333;}@keyframes edge-animation-frame{from{stroke-dashoffset:0;}}@keyframes dash{to{stroke-dashoffset:0;}}#mermaid-1780310633138 .edge-animation-slow{stroke-dasharray:9,5!important;stroke-dashoffset:900;animation:dash 50s linear infinite;stroke-linecap:round;}#mermaid-1780310633138 .edge-animation-fast{stroke-dasharray:9,5!important;stroke-dashoffset:900;animation:dash 20s linear infinite;stroke-linecap:round;}#mermaid-1780310633138 .error-icon{fill:#552222;}#mermaid-1780310633138 .error-text{fill:#552222;stroke:#552222;}#mermaid-1780310633138 .edge-thickness-normal{stroke-width:1px;}#mermaid-1780310633138 .edge-thickness-thick{stroke-width:3.5px;}#mermaid-1780310633138 .edge-pattern-solid{stroke-dasharray:0;}#mermaid-1780310633138 .edge-thickness-invisible{stroke-width:0;fill:none;}#mermaid-1780310633138 .edge-pattern-dashed{stroke-dasharray:3;}#mermaid-1780310633138 .edge-pattern-dotted{stroke-dasharray:2;}#mermaid-1780310633138 .marker{fill:#333333;stroke:#333333;}#mermaid-1780310633138 .marker.cross{stroke:#333333;}#mermaid-1780310633138 svg{font-family:"trebuchet ms",verdana,arial,sans-serif;font-size:16px;}#mermaid-1780310633138 p{margin:0;}#mermaid-1780310633138 .label{font-family:"trebuchet ms",verdana,arial,sans-serif;color:#333;}#mermaid-1780310633138 .cluster-label text{fill:#333;}#mermaid-1780310633138 .cluster-label span{color:#333;}#mermaid-1780310633138 .cluster-label span p{background-color:transparent;}#mermaid-1780310633138 .label text,#mermaid-1780310633138 span{fill:#333;color:#333;}#mermaid-1780310633138 .node rect,#mermaid-1780310633138 .node circle,#mermaid-1780310633138 .node ellipse,#mermaid-1780310633138 .node polygon,#mermaid-1780310633138 .node path{fill:#ECECFF;stroke:#9370DB;stroke-width:1px;}#mermaid-1780310633138 .rough-node .label text,#mermaid-1780310633138 .node .label text,#mermaid-1780310633138 .image-shape .label,#mermaid-1780310633138 .icon-shape .label{text-anchor:middle;}#mermaid-1780310633138 .node .katex path{fill:#000;stroke:#000;stroke-width:1px;}#mermaid-1780310633138 .rough-node .label,#mermaid-1780310633138 .node .label,#mermaid-1780310633138 .image-shape .label,#mermaid-1780310633138 .icon-shape .label{text-align:center;}#mermaid-1780310633138 .node.clickable{cursor:pointer;}#mermaid-1780310633138 .root .anchor path{fill:#333333!important;stroke-width:0;stroke:#333333;}#mermaid-1780310633138 .arrowheadPath{fill:#333333;}#mermaid-1780310633138 .edgePath .path{stroke:#333333;stroke-width:2.0px;}#mermaid-1780310633138 .flowchart-link{stroke:#333333;fill:none;}#mermaid-1780310633138 .edgeLabel{background-color:rgba(232,232,232, 0.8);text-align:center;}#mermaid-1780310633138 .edgeLabel p{background-color:rgba(232,232,232, 0.8);}#mermaid-1780310633138 .edgeLabel rect{opacity:0.5;background-color:rgba(232,232,232, 0.8);fill:rgba(232,232,232, 0.8);}#mermaid-1780310633138 .labelBkg{background-color:rgba(232, 232, 232, 0.5);}#mermaid-1780310633138 .cluster rect{fill:#ffffde;stroke:#aaaa33;stroke-width:1px;}#mermaid-1780310633138 .cluster text{fill:#333;}#mermaid-1780310633138 .cluster span{color:#333;}#mermaid-1780310633138 div.mermaidTooltip{position:absolute;text-align:center;max-width:200px;padding:2px;font-family:"trebuchet ms",verdana,arial,sans-serif;font-size:12px;background:hsl(80, 100%, 96.2745098039%);border:1px solid #aaaa33;border-radius:2px;pointer-events:none;z-index:100;}#mermaid-1780310633138 .flowchartTitleText{text-anchor:middle;font-size:18px;fill:#333;}#mermaid-1780310633138 rect.text{fill:none;stroke-width:0;}#mermaid-1780310633138 .icon-shape,#mermaid-1780310633138 .image-shape{background-color:rgba(232,232,232, 0.8);text-align:center;}#mermaid-1780310633138 .icon-shape p,#mermaid-1780310633138 .image-shape p{background-color:rgba(232,232,232, 0.8);padding:2px;}#mermaid-1780310633138 .icon-shape .label rect,#mermaid-1780310633138 .image-shape .label rect{opacity:0.5;background-color:rgba(232,232,232, 0.8);fill:rgba(232,232,232, 0.8);}#mermaid-1780310633138 .label-icon{display:inline-block;height:1em;overflow:visible;vertical-align:-0.125em;}#mermaid-1780310633138 .node .label-icon path{fill:currentColor;stroke:revert;stroke-width:revert;}#mermaid-1780310633138 :root{--mermaid-font-family:"trebuchet ms",verdana,arial,sans-serif;}</style><g><marker id="mermaid-1780310633138_flowchart-v2-pointEnd" class="marker flowchart-v2" viewBox="0 0 10 10" refX="5" refY="5" markerUnits="userSpaceOnUse" markerWidth="8" markerHeight="8" orient="auto"><path d="M 0 0 L 10 5 L 0 10 z" class="arrowMarkerPath" style="stroke-width: 1; stroke-dasharray: 1, 0;"></path></marker><marker id="mermaid-1780310633138_flowchart-v2-pointStart" class="marker flowchart-v2" viewBox="0 0 10 10" refX="4.5" refY="5" markerUnits="userSpaceOnUse" markerWidth="8" markerHeight="8" orient="auto"><path d="M 0 5 L 10 10 L 10 0 z" class="arrowMarkerPath" style="stroke-width: 1; stroke-dasharray: 1, 0;"></path></marker><marker id="mermaid-1780310633138_flowchart-v2-circleEnd" class="marker flowchart-v2" viewBox="0 0 10 10" refX="11" refY="5" markerUnits="userSpaceOnUse" markerWidth="11" markerHeight="11" orient="auto"><circle cx="5" cy="5" r="5" class="arrowMarkerPath" style="stroke-width: 1; stroke-dasharray: 1, 0;"></circle></marker><marker id="mermaid-1780310633138_flowchart-v2-circleStart" class="marker flowchart-v2" viewBox="0 0 10 10" refX="-1" refY="5" markerUnits="userSpaceOnUse" markerWidth="11" markerHeight="11" orient="auto"><circle cx="5" cy="5" r="5" class="arrowMarkerPath" style="stroke-width: 1; stroke-dasharray: 1, 0;"></circle></marker><marker id="mermaid-1780310633138_flowchart-v2-crossEnd" class="marker cross flowchart-v2" viewBox="0 0 11 11" refX="12" refY="5.2" markerUnits="userSpaceOnUse" markerWidth="11" markerHeight="11" orient="auto"><path d="M 1,1 l 9,9 M 10,1 l -9,9" class="arrowMarkerPath" style="stroke-width: 2; stroke-dasharray: 1, 0;"></path></marker><marker id="mermaid-1780310633138_flowchart-v2-crossStart" class="marker cross flowchart-v2" viewBox="0 0 11 11" refX="-1" refY="5.2" markerUnits="userSpaceOnUse" markerWidth="11" markerHeight="11" orient="auto"><path d="M 1,1 l 9,9 M 10,1 l -9,9" class="arrowMarkerPath" style="stroke-width: 2; stroke-dasharray: 1, 0;"></path></marker><g class="root"><g class="clusters"><g class="cluster " id="PG" data-look="classic"><rect style="" x="1652.90234375" y="777" width="696.90625" height="219.171875"></rect><g class="cluster-label " transform="translate(1802.58203125, 777)"><foreignObject width="397.546875" height="44"><div xmlns="http://www.w3.org/1999/xhtml" style="display: table-cell; white-space: nowrap; line-height: 1.5;"><span class="nodeLabel "><p>POSTGRES 16 &nbsp; shared psycopg AsyncConnectionPool</p></span></div></foreignObject></g></g><g class="cluster " id="PROV" data-look="classic"><rect style="" x="8" y="1730.5983581542969" width="1780.8203125" height="152"></rect><g class="cluster-label " transform="translate(820.91015625, 1730.5983581542969)"><foreignObject width="155" height="44"><div xmlns="http://www.w3.org/1999/xhtml" style="display: table-cell; white-space: nowrap; line-height: 1.5;"><span class="nodeLabel "><p>MODEL PROVIDERS</p></span></div></foreignObject></g></g><g class="cluster " id="ING" data-look="classic"><rect style="" x="1389.23828125" y="1198.171875" width="333.46875" height="176"></rect><g class="cluster-label " transform="translate(1393.23828125, 1198.171875)"><foreignObject width="325.46875" height="44"><div xmlns="http://www.w3.org/1999/xhtml" style="display: table-cell; white-space: nowrap; line-height: 1.5;"><span class="nodeLabel "><p>INGESTION &nbsp; chunk → contextualize → index</p></span></div></foreignObject></g></g><g class="cluster " id="DATA" data-look="classic"><rect style="" x="348.37890625" y="1448.171875" width="1335.03125" height="208.42648315429688"></rect><g class="cluster-label " transform="translate(807.65234375, 1448.171875)"><foreignObject width="416.484375" height="44"><div xmlns="http://www.w3.org/1999/xhtml" style="display: table-cell; white-space: nowrap; line-height: 1.5;"><span class="nodeLabel "><p>DATA PLANE &nbsp; raw async clients (no LangChain wrappers)</p></span></div></foreignObject></g></g><g class="cluster " id="CTRL" data-look="classic"><rect style="" x="24.953125" y="504" width="1036.01953125" height="870.171875"></rect><g class="cluster-label " transform="translate(326.705078125, 504)"><foreignObject width="432.515625" height="44"><div xmlns="http://www.w3.org/1999/xhtml" style="display: table-cell; white-space: nowrap; line-height: 1.5;"><span class="nodeLabel "><p>CONTROL PLANE &nbsp; LangGraph StateGraph (graphs/rag_qa)</p></span></div></foreignObject></g></g></g><g class="edgePaths"><path d="M2208.664,206L2208.664,212.167C2208.664,218.333,2208.664,230.667,2208.664,242.333C2208.664,254,2208.664,265,2208.664,270.5L2208.664,276" id="L_CLIENT_API_0" class=" edge-thickness-normal edge-pattern-solid edge-thickness-normal edge-pattern-solid flowchart-link" style=";" data-edge="true" data-et="edge" data-id="L_CLIENT_API_0" data-points="W3sieCI6MjIwOC42NjQwNjI1LCJ5IjoyMDZ9LHsieCI6MjIwOC42NjQwNjI1LCJ5IjoyNDN9LHsieCI6MjIwOC42NjQwNjI1LCJ5IjoyODB9XQ==" marker-end="url(#mermaid-1780310633138_flowchart-v2-pointEnd)"></path><path d="M2078.664,365.075L1859.471,382.063C1640.277,399.05,1201.891,433.025,982.697,456.179C763.504,479.333,763.504,491.667,763.504,509.333C763.504,527,763.504,550,763.504,561.5L763.504,573" id="L_API_RL_0" class=" edge-thickness-normal edge-pattern-solid edge-thickness-normal edge-pattern-solid flowchart-link" style=";" data-edge="true" data-et="edge" data-id="L_API_RL_0" data-points="W3sieCI6MjA3OC42NjQwNjI1LCJ5IjozNjUuMDc1MDA3OTA2MjM4NzR9LHsieCI6NzYzLjUwMzkwNjI1LCJ5Ijo0Njd9LHsieCI6NzYzLjUwMzkwNjI1LCJ5Ijo1MDR9LHsieCI6NzYzLjUwMzkwNjI1LCJ5Ijo1Nzd9XQ==" marker-end="url(#mermaid-1780310633138_flowchart-v2-pointEnd)"></path><path d="M2078.664,377.308L1991.549,392.256C1904.434,407.205,1730.203,437.103,1643.088,458.218C1555.973,479.333,1555.973,491.667,1555.973,514.5C1555.973,537.333,1555.973,570.667,1555.973,608C1555.973,645.333,1555.973,686.667,1555.973,715.5C1555.973,744.333,1555.973,760.667,1555.973,787.098C1555.973,813.529,1555.973,850.057,1555.973,886.586C1555.973,923.115,1555.973,959.643,1555.973,984.074C1555.973,1008.505,1555.973,1020.839,1555.973,1039.672C1555.973,1058.505,1555.973,1083.839,1555.973,1107.172C1555.973,1130.505,1555.973,1151.839,1555.973,1166.672C1555.973,1181.505,1555.973,1189.839,1555.973,1197.505C1555.973,1205.172,1555.973,1212.172,1555.973,1215.672L1555.973,1219.172" id="L_API_SRC_0" class=" edge-thickness-normal edge-pattern-solid edge-thickness-normal edge-pattern-solid flowchart-link" style=";" data-edge="true" data-et="edge" data-id="L_API_SRC_0" data-points="W3sieCI6MjA3OC42NjQwNjI1LCJ5IjozNzcuMzA3NjMyNDU5MzQ4MDR9LHsieCI6MTU1NS45NzI2NTYyNSwieSI6NDY3fSx7IngiOjE1NTUuOTcyNjU2MjUsInkiOjUwNH0seyJ4IjoxNTU1Ljk3MjY1NjI1LCJ5Ijo2MDR9LHsieCI6MTU1NS45NzI2NTYyNSwieSI6NzI4fSx7IngiOjE1NTUuOTcyNjU2MjUsInkiOjc3N30seyJ4IjoxNTU1Ljk3MjY1NjI1LCJ5Ijo4ODYuNTg1OTM3NX0seyJ4IjoxNTU1Ljk3MjY1NjI1LCJ5Ijo5OTYuMTcxODc1fSx7IngiOjE1NTUuOTcyNjU2MjUsInkiOjEwMzMuMTcxODc1fSx7IngiOjE1NTUuOTcyNjU2MjUsInkiOjExMDkuMTcxODc1fSx7IngiOjE1NTUuOTcyNjU2MjUsInkiOjExNzMuMTcxODc1fSx7IngiOjE1NTUuOTcyNjU2MjUsInkiOjExOTguMTcxODc1fSx7IngiOjE1NTUuOTcyNjU2MjUsInkiOjEyMjMuMTcxODc1fV0=" marker-end="url(#mermaid-1780310633138_flowchart-v2-pointEnd)"></path><path d="M685.926,622.308L611.283,639.923C536.641,657.539,387.355,692.769,312.713,718.551C238.07,744.333,238.07,760.667,238.07,772.333C238.07,784,238.07,791,238.07,794.5L238.07,798" id="L_RL_COND_0" class=" edge-thickness-normal edge-pattern-solid edge-thickness-normal edge-pattern-solid flowchart-link" style=";" data-edge="true" data-et="edge" data-id="L_RL_COND_0" data-points="W3sieCI6Njg1LjkyNTc4MTI1LCJ5Ijo2MjIuMzA4MDkzNzYxODQ4NX0seyJ4IjoyMzguMDcwMzEyNSwieSI6NzI4fSx7IngiOjIzOC4wNzAzMTI1LCJ5Ijo3Nzd9LHsieCI6MjM4LjA3MDMxMjUsInkiOjgwMn1d" marker-end="url(#mermaid-1780310633138_flowchart-v2-pointEnd)"></path><path d="M219.152,952.254L217.044,959.573C214.935,966.893,210.717,981.533,208.609,995.019C206.5,1008.505,206.5,1020.839,206.5,1034.505C206.5,1048.172,206.5,1063.172,206.5,1070.672L206.5,1078.172" id="L_COND_RR_0" class=" edge-thickness-normal edge-pattern-solid edge-thickness-normal edge-pattern-solid flowchart-link" style=";" data-edge="true" data-et="edge" data-id="L_COND_RR_0" data-points="W3sieCI6MjE5LjE1MjIzNzgxMzM5OTM4LCJ5Ijo5NTIuMjUzODAwMzEzMzk5M30seyJ4IjoyMDYuNSwieSI6OTk2LjE3MTg3NX0seyJ4IjoyMDYuNSwieSI6MTAzMy4xNzE4NzV9LHsieCI6MjA2LjUsInkiOjEwODIuMTcxODc1fV0=" marker-end="url(#mermaid-1780310633138_flowchart-v2-pointEnd)"></path><path d="M269.07,940.173L274.469,949.506C279.868,958.839,290.666,977.505,296.066,993.005C301.465,1008.505,301.465,1020.839,321.148,1033.156C340.83,1045.473,380.196,1057.774,399.878,1063.925L419.561,1070.075" id="L_COND_WF_0" class=" edge-thickness-normal edge-pattern-solid edge-thickness-normal edge-pattern-solid flowchart-link" style=";" data-edge="true" data-et="edge" data-id="L_COND_WF_0" data-points="W3sieCI6MjY5LjA2OTY4NDI2MDg5MDIsInkiOjk0MC4xNzI1MDMyMzkxMDk4fSx7IngiOjMwMS40NjQ4NDM3NSwieSI6OTk2LjE3MTg3NX0seyJ4IjozMDEuNDY0ODQzNzUsInkiOjEwMzMuMTcxODc1fSx7IngiOjQyMy4zNzg5MDYyNSwieSI6MTA3MS4yNjgzMDYyMTAwNDh9XQ==" marker-end="url(#mermaid-1780310633138_flowchart-v2-pointEnd)"></path><path d="M665.973,1085.91L711.806,1077.12C757.639,1068.331,849.306,1050.751,895.139,1035.795C940.973,1020.839,940.973,1008.505,940.973,984.074C940.973,959.643,940.973,923.115,940.973,886.586C940.973,850.057,940.973,813.529,940.973,787.098C940.973,760.667,940.973,744.333,918.381,720.382C895.79,696.43,850.608,664.861,828.016,649.076L805.425,633.291" id="L_WF_RL_0" class=" edge-thickness-normal edge-pattern-solid edge-thickness-normal edge-pattern-solid flowchart-link" style=";" data-edge="true" data-et="edge" data-id="L_WF_RL_0" data-points="W3sieCI6NjY1Ljk3MjY1NjI1LCJ5IjoxMDg1LjkxMDExNTc0NDM5MTV9LHsieCI6OTQwLjk3MjY1NjI1LCJ5IjoxMDMzLjE3MTg3NX0seyJ4Ijo5NDAuOTcyNjU2MjUsInkiOjk5Ni4xNzE4NzV9LHsieCI6OTQwLjk3MjY1NjI1LCJ5Ijo4ODYuNTg1OTM3NX0seyJ4Ijo5NDAuOTcyNjU2MjUsInkiOjc3N30seyJ4Ijo5NDAuOTcyNjU2MjUsInkiOjcyOH0seyJ4Ijo4MDIuMTQ2Mjk1MzYyOTAzMiwieSI6NjMxfV0=" marker-end="url(#mermaid-1780310633138_flowchart-v2-pointEnd)"></path><path d="M180.97,1136.172L175.139,1142.339C169.308,1148.505,157.646,1160.839,151.815,1171.172C145.984,1181.505,145.984,1189.839,145.984,1201.505C145.984,1213.172,145.984,1228.172,145.984,1235.672L145.984,1243.172" id="L_RR_GEN_0" class=" edge-thickness-normal edge-pattern-solid edge-thickness-normal edge-pattern-solid flowchart-link" style=";" data-edge="true" data-et="edge" data-id="L_RR_GEN_0" data-points="W3sieCI6MTgwLjk2OTk3MDcwMzEyNSwieSI6MTEzNi4xNzE4NzV9LHsieCI6MTQ1Ljk4NDM3NSwieSI6MTE3My4xNzE4NzV9LHsieCI6MTQ1Ljk4NDM3NSwieSI6MTE5OC4xNzE4NzV9LHsieCI6MTQ1Ljk4NDM3NSwieSI6MTI0Ny4xNzE4NzV9XQ==" marker-end="url(#mermaid-1780310633138_flowchart-v2-pointEnd)"></path><path d="M685.926,629.644L636.335,646.037C586.743,662.429,487.561,695.215,437.97,719.774C388.379,744.333,388.379,760.667,388.379,787.098C388.379,813.529,388.379,850.057,388.379,886.586C388.379,923.115,388.379,959.643,388.379,984.074C388.379,1008.505,388.379,1020.839,388.379,1039.672C388.379,1058.505,388.379,1083.839,388.379,1107.172C388.379,1130.505,388.379,1151.839,388.379,1166.672C388.379,1181.505,388.379,1189.839,388.379,1208.672C388.379,1227.505,388.379,1256.839,388.379,1286.172C388.379,1315.505,388.379,1344.839,388.379,1365.672C388.379,1386.505,388.379,1398.839,388.379,1411.172C388.379,1423.505,388.379,1435.839,509.4,1457.063C630.42,1478.287,872.462,1508.401,993.483,1523.459L1114.503,1538.516" id="L_RL_MILVUS_0" class=" edge-thickness-normal edge-pattern-solid edge-thickness-normal edge-pattern-solid flowchart-link" style=";" data-edge="true" data-et="edge" data-id="L_RL_MILVUS_0" data-points="W3sieCI6Njg1LjkyNTc4MTI1LCJ5Ijo2MjkuNjQzOTUyMDE1OTk0Nn0seyJ4IjozODguMzc4OTA2MjUsInkiOjcyOH0seyJ4IjozODguMzc4OTA2MjUsInkiOjc3N30seyJ4IjozODguMzc4OTA2MjUsInkiOjg4Ni41ODU5Mzc1fSx7IngiOjM4OC4zNzg5MDYyNSwieSI6OTk2LjE3MTg3NX0seyJ4IjozODguMzc4OTA2MjUsInkiOjEwMzMuMTcxODc1fSx7IngiOjM4OC4zNzg5MDYyNSwieSI6MTEwOS4xNzE4NzV9LHsieCI6Mzg4LjM3ODkwNjI1LCJ5IjoxMTczLjE3MTg3NX0seyJ4IjozODguMzc4OTA2MjUsInkiOjExOTguMTcxODc1fSx7IngiOjM4OC4zNzg5MDYyNSwieSI6MTI4Ni4xNzE4NzV9LHsieCI6Mzg4LjM3ODkwNjI1LCJ5IjoxMzc0LjE3MTg3NX0seyJ4IjozODguMzc4OTA2MjUsInkiOjE0MTEuMTcxODc1fSx7IngiOjM4OC4zNzg5MDYyNSwieSI6MTQ0OC4xNzE4NzV9LHsieCI6MTExOC40NzI2NTYyNSwieSI6MTUzOS4wMDk5ODg3NTQ2ODg3fV0=" marker-end="url(#mermaid-1780310633138_flowchart-v2-pointEnd)"></path><path d="M749.888,631L741.736,647.167C733.583,663.333,717.278,695.667,709.125,720C700.973,744.333,700.973,760.667,700.973,787.098C700.973,813.529,700.973,850.057,700.973,886.586C700.973,923.115,700.973,959.643,700.973,984.074C700.973,1008.505,700.973,1020.839,700.973,1039.672C700.973,1058.505,700.973,1083.839,700.973,1107.172C700.973,1130.505,700.973,1151.839,700.973,1166.672C700.973,1181.505,700.973,1189.839,700.973,1208.672C700.973,1227.505,700.973,1256.839,700.973,1286.172C700.973,1315.505,700.973,1344.839,700.973,1365.672C700.973,1386.505,700.973,1398.839,700.973,1411.172C700.973,1423.505,700.973,1435.839,829.071,1457.619C957.17,1479.399,1213.367,1510.626,1341.466,1526.24L1469.565,1541.853" id="L_RL_NEO4J_0" class=" edge-thickness-normal edge-pattern-solid edge-thickness-normal edge-pattern-solid flowchart-link" style=";" data-edge="true" data-et="edge" data-id="L_RL_NEO4J_0" data-points="W3sieCI6NzQ5Ljg4ODIzMDg0Njc3NDEsInkiOjYzMX0seyJ4Ijo3MDAuOTcyNjU2MjUsInkiOjcyOH0seyJ4Ijo3MDAuOTcyNjU2MjUsInkiOjc3N30seyJ4Ijo3MDAuOTcyNjU2MjUsInkiOjg4Ni41ODU5Mzc1fSx7IngiOjcwMC45NzI2NTYyNSwieSI6OTk2LjE3MTg3NX0seyJ4Ijo3MDAuOTcyNjU2MjUsInkiOjEwMzMuMTcxODc1fSx7IngiOjcwMC45NzI2NTYyNSwieSI6MTEwOS4xNzE4NzV9LHsieCI6NzAwLjk3MjY1NjI1LCJ5IjoxMTczLjE3MTg3NX0seyJ4Ijo3MDAuOTcyNjU2MjUsInkiOjExOTguMTcxODc1fSx7IngiOjcwMC45NzI2NTYyNSwieSI6MTI4Ni4xNzE4NzV9LHsieCI6NzAwLjk3MjY1NjI1LCJ5IjoxMzc0LjE3MTg3NX0seyJ4Ijo3MDAuOTcyNjU2MjUsInkiOjE0MTEuMTcxODc1fSx7IngiOjcwMC45NzI2NTYyNSwieSI6MTQ0OC4xNzE4NzV9LHsieCI6MTQ3My41MzUxNTYyNSwieSI6MTU0Mi4zMzcwNzA4NDMyMTE0fV0=" marker-end="url(#mermaid-1780310633138_flowchart-v2-pointEnd)"></path><path d="M544.676,1148.172L544.676,1152.339C544.676,1156.505,544.676,1164.839,544.676,1173.172C544.676,1181.505,544.676,1189.839,690.894,1206.729C837.113,1223.619,1129.55,1249.066,1275.769,1261.789L1421.988,1274.513" id="L_WF_SRC_0" class=" edge-thickness-normal edge-pattern-solid edge-thickness-normal edge-pattern-solid flowchart-link" style=";" data-edge="true" data-et="edge" data-id="L_WF_SRC_0" data-points="W3sieCI6NTQ0LjY3NTc4MTI1LCJ5IjoxMTQ4LjE3MTg3NX0seyJ4Ijo1NDQuNjc1NzgxMjUsInkiOjExNzMuMTcxODc1fSx7IngiOjU0NC42NzU3ODEyNSwieSI6MTE5OC4xNzE4NzV9LHsieCI6MTQyNS45NzI2NTYyNSwieSI6MTI3NC44NTk2Njc1OTMwNTAzfV0=" marker-end="url(#mermaid-1780310633138_flowchart-v2-pointEnd)"></path><path d="M1511.228,1349.172L1508.269,1353.339C1505.31,1357.505,1499.391,1365.839,1496.432,1376.172C1493.473,1386.505,1493.473,1398.839,1493.473,1411.172C1493.473,1423.505,1493.473,1435.839,1467.427,1452.152C1441.382,1468.466,1389.291,1488.759,1363.245,1498.906L1337.2,1509.053" id="L_SRC_MILVUS_0" class=" edge-thickness-normal edge-pattern-solid edge-thickness-normal edge-pattern-solid flowchart-link" style=";" data-edge="true" data-et="edge" data-id="L_SRC_MILVUS_0" data-points="W3sieCI6MTUxMS4yMjgzMzgwNjgxODE4LCJ5IjoxMzQ5LjE3MTg3NX0seyJ4IjoxNDkzLjQ3MjY1NjI1LCJ5IjoxMzc0LjE3MTg3NX0seyJ4IjoxNDkzLjQ3MjY1NjI1LCJ5IjoxNDExLjE3MTg3NX0seyJ4IjoxNDkzLjQ3MjY1NjI1LCJ5IjoxNDQ4LjE3MTg3NX0seyJ4IjoxMzMzLjQ3MjY1NjI1LCJ5IjoxNTEwLjUwNTAyODg0MDUzNzN9XQ==" marker-end="url(#mermaid-1780310633138_flowchart-v2-pointEnd)"></path><path d="M1563.132,1349.172L1563.605,1353.339C1564.079,1357.505,1565.026,1365.839,1565.499,1376.172C1565.973,1386.505,1565.973,1398.839,1565.973,1411.172C1565.973,1423.505,1565.973,1435.839,1565.406,1447.912C1564.84,1459.986,1563.708,1471.8,1563.141,1477.708L1562.575,1483.615" id="L_SRC_NEO4J_0" class=" edge-thickness-normal edge-pattern-solid edge-thickness-normal edge-pattern-solid flowchart-link" style=";" data-edge="true" data-et="edge" data-id="L_SRC_NEO4J_0" data-points="W3sieCI6MTU2My4xMzE3NDcxNTkwOTEsInkiOjEzNDkuMTcxODc1fSx7IngiOjE1NjUuOTcyNjU2MjUsInkiOjEzNzQuMTcxODc1fSx7IngiOjE1NjUuOTcyNjU2MjUsInkiOjE0MTEuMTcxODc1fSx7IngiOjE1NjUuOTcyNjU2MjUsInkiOjE0NDguMTcxODc1fSx7IngiOjE1NjIuMTkzNDgxNzMzNDQ5NSwieSI6MTQ4Ny41OTY0MjEwNzUwNzE3fV0=" marker-end="url(#mermaid-1780310633138_flowchart-v2-pointEnd)"></path><path d="M145.984,1325.172L145.984,1333.339C145.984,1341.505,145.984,1357.839,145.984,1372.172C145.984,1386.505,145.984,1398.839,145.984,1411.172C145.984,1423.505,145.984,1435.839,145.984,1459.374C145.984,1482.91,145.984,1517.647,145.984,1552.385C145.984,1587.123,145.984,1621.861,145.984,1645.396C145.984,1668.932,145.984,1681.265,145.984,1693.598C145.984,1705.932,145.984,1718.265,273.322,1735.572C400.659,1752.879,655.333,1775.16,782.67,1786.3L910.007,1797.44" id="L_GEN_LLM_0" class=" edge-thickness-normal edge-pattern-solid edge-thickness-normal edge-pattern-solid flowchart-link" style=";" data-edge="true" data-et="edge" data-id="L_GEN_LLM_0" data-points="W3sieCI6MTQ1Ljk4NDM3NSwieSI6MTMyNS4xNzE4NzV9LHsieCI6MTQ1Ljk4NDM3NSwieSI6MTM3NC4xNzE4NzV9LHsieCI6MTQ1Ljk4NDM3NSwieSI6MTQxMS4xNzE4NzV9LHsieCI6MTQ1Ljk4NDM3NSwieSI6MTQ0OC4xNzE4NzV9LHsieCI6MTQ1Ljk4NDM3NSwieSI6MTU1Mi4zODUxMTY1NzcxNDg0fSx7IngiOjE0NS45ODQzNzUsInkiOjE2NTYuNTk4MzU4MTU0Mjk2OX0seyJ4IjoxNDUuOTg0Mzc1LCJ5IjoxNjkzLjU5ODM1ODE1NDI5Njl9LHsieCI6MTQ1Ljk4NDM3NSwieSI6MTczMC41OTgzNTgxNTQyOTY5fSx7IngiOjkxMy45OTIxODc1LCJ5IjoxNzk3Ljc4ODg1NDA0NDM2Mjh9XQ==" marker-end="url(#mermaid-1780310633138_flowchart-v2-pointEnd)"></path><path d="M232.03,1136.172L237.861,1142.339C243.692,1148.505,255.354,1160.839,261.185,1171.172C267.016,1181.505,267.016,1189.839,267.016,1208.672C267.016,1227.505,267.016,1256.839,267.016,1286.172C267.016,1315.505,267.016,1344.839,267.016,1365.672C267.016,1386.505,267.016,1398.839,267.016,1411.172C267.016,1423.505,267.016,1435.839,267.016,1459.374C267.016,1482.91,267.016,1517.647,267.016,1552.385C267.016,1587.123,267.016,1621.861,267.016,1645.396C267.016,1668.932,267.016,1681.265,267.016,1693.598C267.016,1705.932,267.016,1718.265,258.587,1730.221C250.158,1742.177,233.3,1753.755,224.871,1759.545L216.443,1765.334" id="L_RR_RER_0" class=" edge-thickness-normal edge-pattern-solid edge-thickness-normal edge-pattern-solid flowchart-link" style=";" data-edge="true" data-et="edge" data-id="L_RR_RER_0" data-points="W3sieCI6MjMyLjAzMDAyOTI5Njg3NSwieSI6MTEzNi4xNzE4NzV9LHsieCI6MjY3LjAxNTYyNSwieSI6MTE3My4xNzE4NzV9LHsieCI6MjY3LjAxNTYyNSwieSI6MTE5OC4xNzE4NzV9LHsieCI6MjY3LjAxNTYyNSwieSI6MTI4Ni4xNzE4NzV9LHsieCI6MjY3LjAxNTYyNSwieSI6MTM3NC4xNzE4NzV9LHsieCI6MjY3LjAxNTYyNSwieSI6MTQxMS4xNzE4NzV9LHsieCI6MjY3LjAxNTYyNSwieSI6MTQ0OC4xNzE4NzV9LHsieCI6MjY3LjAxNTYyNSwieSI6MTU1Mi4zODUxMTY1NzcxNDg0fSx7IngiOjI2Ny4wMTU2MjUsInkiOjE2NTYuNTk4MzU4MTU0Mjk2OX0seyJ4IjoyNjcuMDE1NjI1LCJ5IjoxNjkzLjU5ODM1ODE1NDI5Njl9LHsieCI6MjY3LjAxNTYyNSwieSI6MTczMC41OTgzNTgxNTQyOTY5fSx7IngiOjIxMy4xNDU0MDUwMTY0NDczNywieSI6MTc2Ny41OTgzNTgxNTQyOTY5fV0=" marker-end="url(#mermaid-1780310633138_flowchart-v2-pointEnd)"></path><path d="M1225.973,1631.598L1225.973,1635.765C1225.973,1639.932,1225.973,1648.265,1225.973,1658.598C1225.973,1668.932,1225.973,1681.265,1225.973,1693.598C1225.973,1705.932,1225.973,1718.265,1254.55,1731.545C1283.128,1744.824,1340.283,1759.05,1368.861,1766.163L1397.439,1773.276" id="L_MILVUS_EMB_0" class=" edge-thickness-normal edge-pattern-dotted edge-thickness-normal edge-pattern-solid flowchart-link" style=";" data-edge="true" data-et="edge" data-id="L_MILVUS_EMB_0" data-points="W3sieCI6MTIyNS45NzI2NTYyNSwieSI6MTYzMS41OTgzNTgxNTQyOTY5fSx7IngiOjEyMjUuOTcyNjU2MjUsInkiOjE2NTYuNTk4MzU4MTU0Mjk2OX0seyJ4IjoxMjI1Ljk3MjY1NjI1LCJ5IjoxNjkzLjU5ODM1ODE1NDI5Njl9LHsieCI6MTIyNS45NzI2NTYyNSwieSI6MTczMC41OTgzNTgxNTQyOTY5fSx7IngiOjE0MDEuMzIwMzEyNSwieSI6MTc3NC4yNDE3OTczNjkzMzF9XQ==" marker-end="url(#mermaid-1780310633138_flowchart-v2-pointEnd)"></path><path d="M1555.973,1617.214L1555.973,1623.778C1555.973,1630.342,1555.973,1643.47,1555.973,1656.201C1555.973,1668.932,1555.973,1681.265,1555.973,1693.598C1555.973,1705.932,1555.973,1718.265,1483.201,1734.649C1410.43,1751.034,1264.887,1771.469,1192.115,1781.686L1119.344,1791.904" id="L_NEO4J_LLM_0" class=" edge-thickness-normal edge-pattern-dotted edge-thickness-normal edge-pattern-solid flowchart-link" style=";" data-edge="true" data-et="edge" data-id="L_NEO4J_LLM_0" data-points="W3sieCI6MTU1NS45NzI2NTYyNSwieSI6MTYxNy4yMTQzNTU0Njg3NX0seyJ4IjoxNTU1Ljk3MjY1NjI1LCJ5IjoxNjU2LjU5ODM1ODE1NDI5Njl9LHsieCI6MTU1NS45NzI2NTYyNSwieSI6MTY5My41OTgzNTgxNTQyOTY5fSx7IngiOjE1NTUuOTcyNjU2MjUsInkiOjE3MzAuNTk4MzU4MTU0Mjk2OX0seyJ4IjoxMTE1LjM4MjgxMjUsInkiOjE3OTIuNDYwMDczMjU2NTIwMn1d" marker-end="url(#mermaid-1780310633138_flowchart-v2-pointEnd)"></path><path d="M2085.264,430L2075.118,436.167C2064.972,442.333,2044.679,454.667,2034.533,467C2024.387,479.333,2024.387,491.667,2024.387,514.5C2024.387,537.333,2024.387,570.667,2024.387,608C2024.387,645.333,2024.387,686.667,2024.387,715.5C2024.387,744.333,2024.387,760.667,2024.387,779.734C2024.387,798.801,2024.387,820.601,2024.387,831.502L2024.387,842.402" id="L_API_RUNS_0" class=" edge-thickness-normal edge-pattern-solid edge-thickness-normal edge-pattern-solid flowchart-link" style=";" data-edge="true" data-et="edge" data-id="L_API_RUNS_0" data-points="W3sieCI6MjA4NS4yNjQwNTU1MjQ1NTM0LCJ5Ijo0MzB9LHsieCI6MjAyNC4zODY3MTg3NSwieSI6NDY3fSx7IngiOjIwMjQuMzg2NzE4NzUsInkiOjUwNH0seyJ4IjoyMDI0LjM4NjcxODc1LCJ5Ijo2MDR9LHsieCI6MjAyNC4zODY3MTg3NSwieSI6NzI4fSx7IngiOjIwMjQuMzg2NzE4NzUsInkiOjc3N30seyJ4IjoyMDI0LjM4NjcxODc1LCJ5Ijo4NDYuNDAyMDgwNTM1ODg4N31d" marker-end="url(#mermaid-1780310633138_flowchart-v2-pointEnd)"></path><path d="M2224.984,430L2226.326,436.167C2227.668,442.333,2230.351,454.667,2231.693,467C2233.035,479.333,2233.035,491.667,2233.035,514.5C2233.035,537.333,2233.035,570.667,2233.035,608C2233.035,645.333,2233.035,686.667,2233.035,715.5C2233.035,744.333,2233.035,760.667,2233.035,779.639C2233.035,798.61,2233.035,820.221,2233.035,831.026L2233.035,841.831" id="L_API_CTX_0" class=" edge-thickness-normal edge-pattern-solid edge-thickness-normal edge-pattern-solid flowchart-link" style=";" data-edge="true" data-et="edge" data-id="L_API_CTX_0" data-points="W3sieCI6MjIyNC45ODM5OTEzNTA0NDY2LCJ5Ijo0MzB9LHsieCI6MjIzMy4wMzUxNTYyNSwieSI6NDY3fSx7IngiOjIyMzMuMDM1MTU2MjUsInkiOjUwNH0seyJ4IjoyMjMzLjAzNTE1NjI1LCJ5Ijo2MDR9LHsieCI6MjIzMy4wMzUxNTYyNSwieSI6NzI4fSx7IngiOjIyMzMuMDM1MTU2MjUsInkiOjc3N30seyJ4IjoyMjMzLjAzNTE1NjI1LCJ5Ijo4NDUuODMxMTI3MTY2NzQ4fV0=" marker-end="url(#mermaid-1780310633138_flowchart-v2-pointEnd)"></path><path d="M2335.475,430L2345.902,436.167C2356.328,442.333,2377.182,454.667,2387.608,467C2398.035,479.333,2398.035,491.667,2398.035,501.333C2398.035,511,2398.035,518,2398.035,521.5L2398.035,525" id="L_API_DEPLOY_0" class=" edge-thickness-normal edge-pattern-dotted edge-thickness-normal edge-pattern-solid flowchart-link" style=";" data-edge="true" data-et="edge" data-id="L_API_DEPLOY_0" data-points="W3sieCI6MjMzNS40NzUwNjI3NzkwMTc3LCJ5Ijo0MzB9LHsieCI6MjM5OC4wMzUxNTYyNSwieSI6NDY3fSx7IngiOjIzOTguMDM1MTU2MjUsInkiOjUwNH0seyJ4IjoyMzk4LjAzNTE1NjI1LCJ5Ijo1Mjl9XQ==" marker-end="url(#mermaid-1780310633138_flowchart-v2-pointEnd)"></path><path d="M1060.973,847.701L1683.906,874.594" id="L_CTRL_CKPT_0" class=" edge-thickness-normal edge-pattern-solid edge-thickness-normal edge-pattern-solid flowchart-link" style=";" data-edge="true" data-et="edge" data-id="L_CTRL_CKPT_0" data-points="W3sieCI6Nzc2LjAxNzI2MzEwNDgzODcsInkiOjYzMX0seyJ4Ijo4MjAuOTcyNjU2MjUsInkiOjcyOH0seyJ4Ijo4MjAuOTcyNjU2MjUsInkiOjc3N30seyJ4IjoxNjg3LjkwMjM0Mzc1LCJ5Ijo4NzQuNzY2NzQwNTc3OTE3Mn1d" marker-end="url(#mermaid-1780310633138_flowchart-v2-pointEnd)"></path><path d="M1225.973,1337.172L1225.973,1343.339C1225.973,1349.505,1225.973,1361.839,1225.973,1374.172C1225.973,1386.505,1225.973,1398.839,1225.973,1410.505C1225.973,1422.172,1225.973,1433.172,1225.973,1438.672L1225.973,1444.172" id="L_EVAL_DATA_0" class=" edge-thickness-normal edge-pattern-dotted edge-thickness-normal edge-pattern-solid flowchart-link" style=";" data-edge="true" data-et="edge" data-id="L_EVAL_DATA_0" data-points="W3sieCI6MTIyNS45NzI2NTYyNSwieSI6MTMzNy4xNzE4NzV9LHsieCI6MTIyNS45NzI2NTYyNSwieSI6MTM3NC4xNzE4NzV9LHsieCI6MTIyNS45NzI2NTYyNSwieSI6MTQxMS4xNzE4NzV9LHsieCI6MTIyNS45NzI2NTYyNSwieSI6MTQ0OC4xNzE4NzV9LHsieCI6MTIyNS45NzI2NTYyNSwieSI6MTQ3My4xNzE4NzV9XQ==" marker-end="url(#mermaid-1780310633138_flowchart-v2-pointEnd)"></path></g><g class="edgeLabels"><g class="edgeLabel" transform="translate(2208.6640625, 243)"><g class="label" data-id="L_CLIENT_API_0" transform="translate(-90.9375, -12)"><foreignObject width="181.875" height="44"><div xmlns="http://www.w3.org/1999/xhtml" class="labelBkg" style="display: table-cell; white-space: nowrap; line-height: 1.5; max-width: 200px; text-align: center;"><span class="edgeLabel "><p>fetch + SSE token stream</p></span></div></foreignObject></g></g><g class="edgeLabel" transform="translate(763.50390625, 467)"><g class="label" data-id="L_API_RL_0" transform="translate(-62.6875, -12)"><foreignObject width="125.375" height="44"><div xmlns="http://www.w3.org/1999/xhtml" class="labelBkg" style="display: table-cell; white-space: nowrap; line-height: 1.5; max-width: 200px; text-align: center;"><span class="edgeLabel "><p>/ask · /ask/stream</p></span></div></foreignObject></g></g><g class="edgeLabel" transform="translate(1555.97265625, 886.5859375)"><g class="label" data-id="L_API_SRC_0" transform="translate(-76.9296875, -12)"><foreignObject width="153.859375" height="44"><div xmlns="http://www.w3.org/1999/xhtml" class="labelBkg" style="display: table-cell; white-space: nowrap; line-height: 1.5; max-width: 200px; text-align: center;"><span class="edgeLabel "><p>/ingest · /documents/*</p></span></div></foreignObject></g></g><g class="edgeLabel"><g class="label" data-id="L_RL_COND_0" transform="translate(0, 0)"><foreignObject width="0" height="20"><div xmlns="http://www.w3.org/1999/xhtml" class="labelBkg" style="display: table-cell; white-space: nowrap; line-height: 1.5; max-width: 200px; text-align: center;"><span class="edgeLabel "></span></div></foreignObject></g></g><g class="edgeLabel" transform="translate(206.5, 1033.171875)"><g class="label" data-id="L_COND_RR_0" transform="translate(-8.8984375, -12)"><foreignObject width="17.796875" height="44"><div xmlns="http://www.w3.org/1999/xhtml" class="labelBkg" style="display: table-cell; white-space: nowrap; line-height: 1.5; max-width: 200px; text-align: center;"><span class="edgeLabel "><p>no</p></span></div></foreignObject></g></g><g class="edgeLabel" transform="translate(301.46484375, 1033.171875)"><g class="label" data-id="L_COND_WF_0" transform="translate(-34.2421875, -12)"><foreignObject width="68.484375" height="44"><div xmlns="http://www.w3.org/1999/xhtml" class="labelBkg" style="display: table-cell; white-space: nowrap; line-height: 1.5; max-width: 200px; text-align: center;"><span class="edgeLabel "><p>yes, once</p></span></div></foreignObject></g></g><g class="edgeLabel" transform="translate(940.97265625, 886.5859375)"><g class="label" data-id="L_WF_RL_0" transform="translate(-100, -24)"><foreignObject width="200" height="68"><div xmlns="http://www.w3.org/1999/xhtml" class="labelBkg" style="display: table; white-space: break-spaces; line-height: 1.5; max-width: 200px; text-align: center; width: 200px;"><span class="edgeLabel "><p>approved URLs · /ask/resume</p></span></div></foreignObject></g></g><g class="edgeLabel"><g class="label" data-id="L_RR_GEN_0" transform="translate(0, 0)"><foreignObject width="0" height="20"><div xmlns="http://www.w3.org/1999/xhtml" class="labelBkg" style="display: table-cell; white-space: nowrap; line-height: 1.5; max-width: 200px; text-align: center;"><span class="edgeLabel "></span></div></foreignObject></g></g><g class="edgeLabel"><g class="label" data-id="L_RL_MILVUS_0" transform="translate(0, 0)"><foreignObject width="0" height="20"><div xmlns="http://www.w3.org/1999/xhtml" class="labelBkg" style="display: table-cell; white-space: nowrap; line-height: 1.5; max-width: 200px; text-align: center;"><span class="edgeLabel "></span></div></foreignObject></g></g><g class="edgeLabel"><g class="label" data-id="L_RL_NEO4J_0" transform="translate(0, 0)"><foreignObject width="0" height="20"><div xmlns="http://www.w3.org/1999/xhtml" class="labelBkg" style="display: table-cell; white-space: nowrap; line-height: 1.5; max-width: 200px; text-align: center;"><span class="edgeLabel "></span></div></foreignObject></g></g><g class="edgeLabel"><g class="label" data-id="L_WF_SRC_0" transform="translate(0, 0)"><foreignObject width="0" height="20"><div xmlns="http://www.w3.org/1999/xhtml" class="labelBkg" style="display: table-cell; white-space: nowrap; line-height: 1.5; max-width: 200px; text-align: center;"><span class="edgeLabel "></span></div></foreignObject></g></g><g class="edgeLabel"><g class="label" data-id="L_SRC_MILVUS_0" transform="translate(0, 0)"><foreignObject width="0" height="20"><div xmlns="http://www.w3.org/1999/xhtml" class="labelBkg" style="display: table-cell; white-space: nowrap; line-height: 1.5; max-width: 200px; text-align: center;"><span class="edgeLabel "></span></div></foreignObject></g></g><g class="edgeLabel"><g class="label" data-id="L_SRC_NEO4J_0" transform="translate(0, 0)"><foreignObject width="0" height="20"><div xmlns="http://www.w3.org/1999/xhtml" class="labelBkg" style="display: table-cell; white-space: nowrap; line-height: 1.5; max-width: 200px; text-align: center;"><span class="edgeLabel "></span></div></foreignObject></g></g><g class="edgeLabel"><g class="label" data-id="L_GEN_LLM_0" transform="translate(0, 0)"><foreignObject width="0" height="20"><div xmlns="http://www.w3.org/1999/xhtml" class="labelBkg" style="display: table-cell; white-space: nowrap; line-height: 1.5; max-width: 200px; text-align: center;"><span class="edgeLabel "></span></div></foreignObject></g></g><g class="edgeLabel"><g class="label" data-id="L_RR_RER_0" transform="translate(0, 0)"><foreignObject width="0" height="20"><div xmlns="http://www.w3.org/1999/xhtml" class="labelBkg" style="display: table-cell; white-space: nowrap; line-height: 1.5; max-width: 200px; text-align: center;"><span class="edgeLabel "></span></div></foreignObject></g></g><g class="edgeLabel" transform="translate(1225.97265625, 1693.5983581542969)"><g class="label" data-id="L_MILVUS_EMB_0" transform="translate(-24.4609375, -12)"><foreignObject width="48.921875" height="44"><div xmlns="http://www.w3.org/1999/xhtml" class="labelBkg" style="display: table-cell; white-space: nowrap; line-height: 1.5; max-width: 200px; text-align: center;"><span class="edgeLabel "><p>embed</p></span></div></foreignObject></g></g><g class="edgeLabel" transform="translate(1555.97265625, 1693.5983581542969)"><g class="label" data-id="L_NEO4J_LLM_0" transform="translate(-56.03125, -12)"><foreignObject width="112.0625" height="44"><div xmlns="http://www.w3.org/1999/xhtml" class="labelBkg" style="display: table-cell; white-space: nowrap; line-height: 1.5; max-width: 200px; text-align: center;"><span class="edgeLabel "><p>entity extraction</p></span></div></foreignObject></g></g><g class="edgeLabel"><g class="label" data-id="L_API_RUNS_0" transform="translate(0, 0)"><foreignObject width="0" height="20"><div xmlns="http://www.w3.org/1999/xhtml" class="labelBkg" style="display: table-cell; white-space: nowrap; line-height: 1.5; max-width: 200px; text-align: center;"><span class="edgeLabel "></span></div></foreignObject></g></g><g class="edgeLabel"><g class="label" data-id="L_API_CTX_0" transform="translate(0, 0)"><foreignObject width="0" height="20"><div xmlns="http://www.w3.org/1999/xhtml" class="labelBkg" style="display: table-cell; white-space: nowrap; line-height: 1.5; max-width: 200px; text-align: center;"><span class="edgeLabel "></span></div></foreignObject></g></g><g class="edgeLabel" transform="translate(2398.03515625, 467)"><g class="label" data-id="L_API_DEPLOY_0" transform="translate(-43.1484375, -12)"><foreignObject width="86.296875" height="44"><div xmlns="http://www.w3.org/1999/xhtml" class="labelBkg" style="display: table-cell; white-space: nowrap; line-height: 1.5; max-width: 200px; text-align: center;"><span class="edgeLabel "><p>deployed as</p></span></div></foreignObject></g></g><g class="edgeLabel" transform="translate(1374.4375, 861.23391)"><g class="label" data-id="L_CTRL_CKPT_0" transform="translate(-100, -24)"><foreignObject width="200" height="68"><div xmlns="http://www.w3.org/1999/xhtml" class="labelBkg" style="display: table; white-space: break-spaces; line-height: 1.5; max-width: 200px; text-align: center; width: 200px;"><span class="edgeLabel "><p>AsyncPostgresSaver (pooled)</p></span></div></foreignObject></g></g><g class="edgeLabel" transform="translate(1225.97266, 1392.67188)"><g class="label" data-id="L_EVAL_DATA_0" transform="translate(-52.03125, -12)"><foreignObject width="104.0625" height="44"><div xmlns="http://www.w3.org/1999/xhtml" class="labelBkg" style="display: table-cell; white-space: nowrap; line-height: 1.5; max-width: 200px; text-align: center;"><span class="edgeLabel "><p>A/B each layer</p></span></div></foreignObject></g></g></g><g class="nodes"><g class="node default  " id="flowchart-CLIENT-0" transform="translate(2208.6640625, 107)"><rect class="basic label-container" style="" x="-130" y="-99" width="260" height="198"></rect><g class="label" style="" transform="translate(-100, -84)"><rect></rect><foreignObject width="200" height="188"><div xmlns="http://www.w3.org/1999/xhtml" style="display: table; white-space: break-spaces; line-height: 1.5; max-width: 200px; text-align: center; width: 200px;"><span class="nodeLabel "><p>WEB UI &nbsp; React 19 / shadcn-ui / Tailwind v4 / TanStack / i18next EN-RU / light-dark<br>Ask · Library · Ingest · Threads · Graph · Evals · History · Settings</p></span></div></foreignObject></g></g><g class="node default  " id="flowchart-API-2" transform="translate(2208.6640625, 355)"><rect class="basic label-container" style="" x="-130" y="-75" width="260" height="150"></rect><g class="label" style="" transform="translate(-100, -60)"><rect></rect><foreignObject width="200" height="140"><div xmlns="http://www.w3.org/1999/xhtml" style="display: table; white-space: break-spaces; line-height: 1.5; max-width: 200px; text-align: center; width: 200px;"><span class="nodeLabel "><p>FastAPI &nbsp; api/main.py :8000<br>routers: ask · ingest · library · threads · runs · graph · evals · settings · health · admin</p></span></div></foreignObject></g></g><g class="node default  " id="flowchart-RL-5" transform="translate(763.50390625, 604)"><rect class="basic label-container" style="" x="-77.578125" y="-27" width="155.15625" height="54"></rect><g class="label" style="" transform="translate(-47.578125, -12)"><rect></rect><foreignObject width="95.15625" height="44"><div xmlns="http://www.w3.org/1999/xhtml" style="display: table-cell; white-space: nowrap; line-height: 1.5; max-width: 200px; text-align: center;"><span class="nodeLabel "><p>retrieve_local</p></span></div></foreignObject></g></g><g class="node default  " id="flowchart-SRC-7" transform="translate(1555.97265625, 1286.171875)"><rect class="basic label-container" style="" x="-130" y="-63" width="260" height="126"></rect><g class="label" style="" transform="translate(-100, -48)"><rect></rect><foreignObject width="200" height="116"><div xmlns="http://www.w3.org/1999/xhtml" style="display: table; white-space: break-spaces; line-height: 1.5; max-width: 200px; text-align: center; width: 200px;"><span class="nodeLabel "><p>Docling (PDF/DOCX) · Crawl4AI (web)<br>SearXNG (search) · pasted text</p></span></div></foreignObject></g></g><g class="node default  " id="flowchart-COND-9" transform="translate(238.0703125, 886.5859375)"><polygon points="84.5859375,0 169.171875,-84.5859375 84.5859375,-169.171875 0,-84.5859375" class="label-container" transform="translate(-84.0859375, 84.5859375)"></polygon><g class="label" style="" transform="translate(-57.5859375, -12)"><rect></rect><foreignObject width="115.171875" height="44"><div xmlns="http://www.w3.org/1999/xhtml" style="display: table-cell; white-space: nowrap; line-height: 1.5; max-width: 200px; text-align: center;"><span class="nodeLabel "><p>local hits &lt; min?</p></span></div></foreignObject></g></g><g class="node default  " id="flowchart-RR-11" transform="translate(206.5, 1109.171875)"><rect class="basic label-container" style="" x="-52.6796875" y="-27" width="105.359375" height="54"></rect><g class="label" style="" transform="translate(-22.6796875, -12)"><rect></rect><foreignObject width="45.359375" height="44"><div xmlns="http://www.w3.org/1999/xhtml" style="display: table-cell; white-space: nowrap; line-height: 1.5; max-width: 200px; text-align: center;"><span class="nodeLabel "><p>rerank</p></span></div></foreignObject></g></g><g class="node default  " id="flowchart-WF-13" transform="translate(544.67578125, 1109.171875)"><rect class="basic label-container" style="" x="-121.296875" y="-39" width="242.59375" height="78"></rect><g class="label" style="" transform="translate(-91.296875, -24)"><rect></rect><foreignObject width="182.59375" height="68"><div xmlns="http://www.w3.org/1999/xhtml" style="display: table-cell; white-space: nowrap; line-height: 1.5; max-width: 200px; text-align: center;"><span class="nodeLabel "><p>web_fallback<br>interrupt() · HITL approval</p></span></div></foreignObject></g></g><g class="node default  " id="flowchart-GEN-17" transform="translate(145.984375, 1286.171875)"><rect class="basic label-container" style="" x="-86.03125" y="-39" width="172.0625" height="78"></rect><g class="label" style="" transform="translate(-56.03125, -24)"><rect></rect><foreignObject width="112.0625" height="68"><div xmlns="http://www.w3.org/1999/xhtml" style="display: table-cell; white-space: nowrap; line-height: 1.5; max-width: 200px; text-align: center;"><span class="nodeLabel "><p>generate<br>cited answer [n]</p></span></div></foreignObject></g></g><g class="node default  " id="flowchart-MILVUS-18" transform="translate(1225.97265625, 1552.3851165771484)"><path d="M0,15.808823529411764 a107.5,15.808823529411764 0,0,0 215,0 a107.5,15.808823529411764 0,0,0 -215,0 l0,126.80882352941177 a107.5,15.808823529411764 0,0,0 215,0 l0,-126.80882352941177" class="basic label-container" style="" label-offset-y="15.808823529411764" transform="translate(-107.5, -79.21323529411765)"></path><g class="label" style="" transform="translate(-100, -38)"><rect></rect><foreignObject width="200" height="116"><div xmlns="http://www.w3.org/1999/xhtml" style="display: table; white-space: break-spaces; line-height: 1.5; max-width: 200px; text-align: center; width: 200px;"><span class="nodeLabel "><p>Milvus 2.6<br>dense HNSW + native BM25<br>hybrid_search + RRF</p></span></div></foreignObject></g></g><g class="node default  " id="flowchart-NEO4J-19" transform="translate(1555.97265625, 1552.3851165771484)"><path d="M0,14.219491159982752 a82.4375,14.219491159982752 0,0,0 164.875,0 a82.4375,14.219491159982752 0,0,0 -164.875,0 l0,101.21949115998275 a82.4375,14.219491159982752 0,0,0 164.875,0 l0,-101.21949115998275" class="basic label-container" style="" label-offset-y="14.219491159982752" transform="translate(-82.4375, -64.82923673997414)"></path><g class="label" style="" transform="translate(-74.9375, -26)"><rect></rect><foreignObject width="149.875" height="92"><div xmlns="http://www.w3.org/1999/xhtml" style="display: table-cell; white-space: nowrap; line-height: 1.5; max-width: 200px; text-align: center;"><span class="nodeLabel "><p>Neo4j 5<br>Chunk + Entity graph<br>vector-seed → 1-hop</p></span></div></foreignObject></g></g><g class="node default  " id="flowchart-LLM-29" transform="translate(1014.6875, 1806.5983581542969)"><rect class="basic label-container" style="" x="-100.6953125" y="-39" width="201.390625" height="78"></rect><g class="label" style="" transform="translate(-70.6953125, -24)"><rect></rect><foreignObject width="141.390625" height="68"><div xmlns="http://www.w3.org/1999/xhtml" style="display: table-cell; white-space: nowrap; line-height: 1.5; max-width: 200px; text-align: center;"><span class="nodeLabel "><p>LLM · Ollama Cloud<br>minimax-m3</p></span></div></foreignObject></g></g><g class="node default  " id="flowchart-RER-30" transform="translate(156.36328125, 1806.5983581542969)"><rect class="basic label-container" style="" x="-100.6953125" y="-39" width="201.390625" height="78"></rect><g class="label" style="" transform="translate(-70.6953125, -24)"><rect></rect><foreignObject width="141.390625" height="68"><div xmlns="http://www.w3.org/1999/xhtml" style="display: table-cell; white-space: nowrap; line-height: 1.5; max-width: 200px; text-align: center;"><span class="nodeLabel "><p>Reranker<br>bge-reranker-v2-m3</p></span></div></foreignObject></g></g><g class="node default  " id="flowchart-EMB-31" transform="translate(1531.3203125, 1806.5983581542969)"><rect class="basic label-container" style="" x="-130" y="-51" width="260" height="102"></rect><g class="label" style="" transform="translate(-100, -36)"><rect></rect><foreignObject width="200" height="92"><div xmlns="http://www.w3.org/1999/xhtml" style="display: table; white-space: break-spaces; line-height: 1.5; max-width: 200px; text-align: center; width: 200px;"><span class="nodeLabel "><p>Embeddings · OpenAI<br>text-embedding-3-large (3072-d)</p></span></div></foreignObject></g></g><g class="node default  " id="flowchart-CKPT-40" transform="translate(1792.70703125, 886.5859375)"><path d="M0,15.660751809479336 a104.8046875,15.660751809479336 0,0,0 209.609375,0 a104.8046875,15.660751809479336 0,0,0 -209.609375,0 l0,78.66075180947934 a104.8046875,15.660751809479336 0,0,0 209.609375,0 l0,-78.66075180947934" class="basic label-container" style="" label-offset-y="15.660751809479336" transform="translate(-104.8046875, -54.991127714219004)"></path><g class="label" style="" transform="translate(-97.3046875, -14)"><rect></rect><foreignObject width="194.609375" height="68"><div xmlns="http://www.w3.org/1999/xhtml" style="display: table-cell; white-space: nowrap; line-height: 1.5; max-width: 200px; text-align: center;"><span class="nodeLabel "><p>LangGraph checkpoints<br>thread state + HITL resume</p></span></div></foreignObject></g></g><g class="node default  " id="flowchart-RUNS-41" transform="translate(2024.38671875, 886.5859375)"><path d="M0,13.789237668161434 a76.875,13.789237668161434 0,0,0 153.75,0 a76.875,13.789237668161434 0,0,0 -153.75,0 l0,52.789237668161434 a76.875,13.789237668161434 0,0,0 153.75,0 l0,-52.789237668161434" class="basic label-container" style="" label-offset-y="13.789237668161434" transform="translate(-76.875, -40.18385650224215)"></path><g class="label" style="" transform="translate(-69.375, -2)"><rect></rect><foreignObject width="138.75" height="44"><div xmlns="http://www.w3.org/1999/xhtml" style="display: table-cell; white-space: nowrap; line-height: 1.5; max-width: 200px; text-align: center;"><span class="nodeLabel "><p>runs · /ask audit log</p></span></div></foreignObject></g></g><g class="node default  " id="flowchart-CTX-42" transform="translate(2233.03515625, 886.5859375)"><path d="M0,14.169870579953429 a81.7734375,14.169870579953429 0,0,0 163.546875,0 a81.7734375,14.169870579953429 0,0,0 -163.546875,0 l0,53.169870579953425 a81.7734375,14.169870579953429 0,0,0 163.546875,0 l0,-53.169870579953425" class="basic label-container" style="" label-offset-y="14.169870579953429" transform="translate(-81.7734375, -40.75480586993014)"></path><g class="label" style="" transform="translate(-74.2734375, -2)"><rect></rect><foreignObject width="148.546875" height="44"><div xmlns="http://www.w3.org/1999/xhtml" style="display: table-cell; white-space: nowrap; line-height: 1.5; max-width: 200px; text-align: center;"><span class="nodeLabel "><p>thread_context · pins</p></span></div></foreignObject></g></g><g class="node default  " id="flowchart-EVAL-48" transform="translate(1225.97265625, 1286.171875)"><rect class="basic label-container" style="" x="-130" y="-51" width="260" height="102"></rect><g class="label" style="" transform="translate(-100, -36)"><rect></rect><foreignObject width="200" height="92"><div xmlns="http://www.w3.org/1999/xhtml" style="display: table; white-space: break-spaces; line-height: 1.5; max-width: 200px; text-align: center; width: 200px;"><span class="nodeLabel "><p>EVAL HARNESS · RAGAS + precision@k / nDCG · eval/evaluate.py</p></span></div></foreignObject></g></g><g class="node default  " id="flowchart-DEPLOY-50" transform="translate(2398.03515625, 604)"><rect class="basic label-container" style="" x="-130" y="-75" width="260" height="150"></rect><g class="label" style="" transform="translate(-100, -60)"><rect></rect><foreignObject width="200" height="140"><div xmlns="http://www.w3.org/1999/xhtml" style="display: table; white-space: break-spaces; line-height: 1.5; max-width: 200px; text-align: center; width: 200px;"><span class="nodeLabel "><p>DEPLOY · Mac Mini / Tailscale · launchd: api:8000 · langgraph:2024 · vite:5173 · auto-deploy on push to main</p></span></div></foreignObject></g></g></g></g></g></svg>